<mxfile host="app.diagrams.net" modified="2021-08-31T06:51:09.554Z" agent="5.0 (Windows NT 10.0; Win64; x64) AppleWebKit/537.36 (KHTML, like Gecko) Chrome/92.0.4515.159 Safari/537.36" etag="noJzA4bfIz0m2FQFR58N" version="15.0.3" type="github">
  <diagram id="ffmO-sJ7_YCIPXltRzIW" name="Сторінка-1">
    <mxGraphModel dx="7806" dy="2693" grid="1" gridSize="10" guides="1" tooltips="1" connect="1" arrows="1" fold="1" page="1" pageScale="1" pageWidth="827" pageHeight="1169" math="0" shadow="0">
      <root>
        <mxCell id="0" />
        <mxCell id="1" parent="0" />
        <mxCell id="pEa-rMu9kl-3zr13X7H1-199" style="edgeStyle=orthogonalEdgeStyle;rounded=0;orthogonalLoop=1;jettySize=auto;html=1;exitX=0.5;exitY=0;exitDx=0;exitDy=0;entryX=1;entryY=0.5;entryDx=0;entryDy=0;" parent="1" source="rtQ2xhxiL2YdAqn3eKPk-1" target="pEa-rMu9kl-3zr13X7H1-194" edge="1">
          <mxGeometry relative="1" as="geometry" />
        </mxCell>
        <mxCell id="rtQ2xhxiL2YdAqn3eKPk-1" value="ChildrenTrees" style="swimlane;fontStyle=1;align=center;verticalAlign=top;childLayout=stackLayout;horizontal=1;startSize=26;horizontalStack=0;resizeParent=1;resizeParentMax=0;resizeLast=0;collapsible=1;marginBottom=0;" parent="1" vertex="1">
          <mxGeometry x="-1380" y="-440" width="160" height="138" as="geometry" />
        </mxCell>
        <mxCell id="rtQ2xhxiL2YdAqn3eKPk-2" value="+ allChildren: {*}" style="text;strokeColor=none;fillColor=none;align=left;verticalAlign=top;spacingLeft=4;spacingRight=4;overflow=hidden;rotatable=0;points=[[0,0.5],[1,0.5]];portConstraint=eastwest;" parent="rtQ2xhxiL2YdAqn3eKPk-1" vertex="1">
          <mxGeometry y="26" width="160" height="26" as="geometry" />
        </mxCell>
        <mxCell id="v4rBiRq6WJc0ddFK_sni-3" value="+ сhildrenTree: {*}" style="text;strokeColor=none;fillColor=none;align=left;verticalAlign=top;spacingLeft=4;spacingRight=4;overflow=hidden;rotatable=0;points=[[0,0.5],[1,0.5]];portConstraint=eastwest;" parent="rtQ2xhxiL2YdAqn3eKPk-1" vertex="1">
          <mxGeometry y="52" width="160" height="26" as="geometry" />
        </mxCell>
        <mxCell id="v4rBiRq6WJc0ddFK_sni-4" value="+ SceneChildrenHelper: {*}" style="text;strokeColor=none;fillColor=none;align=left;verticalAlign=top;spacingLeft=4;spacingRight=4;overflow=hidden;rotatable=0;points=[[0,0.5],[1,0.5]];portConstraint=eastwest;" parent="rtQ2xhxiL2YdAqn3eKPk-1" vertex="1">
          <mxGeometry y="78" width="160" height="26" as="geometry" />
        </mxCell>
        <mxCell id="rtQ2xhxiL2YdAqn3eKPk-3" value="" style="line;strokeWidth=1;fillColor=none;align=left;verticalAlign=middle;spacingTop=-1;spacingLeft=3;spacingRight=3;rotatable=0;labelPosition=right;points=[];portConstraint=eastwest;" parent="rtQ2xhxiL2YdAqn3eKPk-1" vertex="1">
          <mxGeometry y="104" width="160" height="8" as="geometry" />
        </mxCell>
        <mxCell id="rtQ2xhxiL2YdAqn3eKPk-4" value="+ getAllChildren(): {*}" style="text;fillColor=none;align=left;verticalAlign=top;spacingLeft=4;spacingRight=4;overflow=hidden;rotatable=0;points=[[0,0.5],[1,0.5]];portConstraint=eastwest;fontStyle=4;strokeWidth=3;" parent="rtQ2xhxiL2YdAqn3eKPk-1" vertex="1">
          <mxGeometry y="112" width="160" height="26" as="geometry" />
        </mxCell>
        <mxCell id="pEa-rMu9kl-3zr13X7H1-1" value="SceneChildrenHelper" style="swimlane;fontStyle=1;align=center;verticalAlign=top;childLayout=stackLayout;horizontal=1;startSize=26;horizontalStack=0;resizeParent=1;resizeParentMax=0;resizeLast=0;collapsible=1;marginBottom=0;" parent="1" vertex="1">
          <mxGeometry x="-1670" y="-320" width="230" height="112" as="geometry" />
        </mxCell>
        <mxCell id="pEa-rMu9kl-3zr13X7H1-2" value="..." style="text;strokeColor=none;fillColor=none;align=left;verticalAlign=top;spacingLeft=4;spacingRight=4;overflow=hidden;rotatable=0;points=[[0,0.5],[1,0.5]];portConstraint=eastwest;" parent="pEa-rMu9kl-3zr13X7H1-1" vertex="1">
          <mxGeometry y="26" width="230" height="26" as="geometry" />
        </mxCell>
        <mxCell id="pEa-rMu9kl-3zr13X7H1-3" value="" style="line;strokeWidth=1;fillColor=none;align=left;verticalAlign=middle;spacingTop=-1;spacingLeft=3;spacingRight=3;rotatable=0;labelPosition=right;points=[];portConstraint=eastwest;" parent="pEa-rMu9kl-3zr13X7H1-1" vertex="1">
          <mxGeometry y="52" width="230" height="8" as="geometry" />
        </mxCell>
        <mxCell id="pEa-rMu9kl-3zr13X7H1-4" value="+ getAllChildrenElements(obj): Obj" style="text;strokeColor=none;fillColor=none;align=left;verticalAlign=top;spacingLeft=4;spacingRight=4;overflow=hidden;rotatable=0;points=[[0,0.5],[1,0.5]];portConstraint=eastwest;" parent="pEa-rMu9kl-3zr13X7H1-1" vertex="1">
          <mxGeometry y="60" width="230" height="26" as="geometry" />
        </mxCell>
        <mxCell id="pEa-rMu9kl-3zr13X7H1-6" value="+ getAllChildrenElementsTree(obj): Obj" style="text;strokeColor=none;fillColor=none;align=left;verticalAlign=top;spacingLeft=4;spacingRight=4;overflow=hidden;rotatable=0;points=[[0,0.5],[1,0.5]];portConstraint=eastwest;" parent="pEa-rMu9kl-3zr13X7H1-1" vertex="1">
          <mxGeometry y="86" width="230" height="26" as="geometry" />
        </mxCell>
        <mxCell id="pEa-rMu9kl-3zr13X7H1-8" value="AssetsManager" style="swimlane;fontStyle=1;align=center;verticalAlign=top;childLayout=stackLayout;horizontal=1;startSize=26;horizontalStack=0;resizeParent=1;resizeParentMax=0;resizeLast=0;collapsible=1;marginBottom=0;" parent="1" vertex="1">
          <mxGeometry x="-4170" y="1320" width="160" height="164" as="geometry" />
        </mxCell>
        <mxCell id="pEa-rMu9kl-3zr13X7H1-9" value="+ model: type" style="text;strokeColor=none;fillColor=none;align=left;verticalAlign=top;spacingLeft=4;spacingRight=4;overflow=hidden;rotatable=0;points=[[0,0.5],[1,0.5]];portConstraint=eastwest;" parent="pEa-rMu9kl-3zr13X7H1-8" vertex="1">
          <mxGeometry y="26" width="160" height="26" as="geometry" />
        </mxCell>
        <mxCell id="pEa-rMu9kl-3zr13X7H1-43" value="+ view: type" style="text;strokeColor=none;fillColor=none;align=left;verticalAlign=top;spacingLeft=4;spacingRight=4;overflow=hidden;rotatable=0;points=[[0,0.5],[1,0.5]];portConstraint=eastwest;" parent="pEa-rMu9kl-3zr13X7H1-8" vertex="1">
          <mxGeometry y="52" width="160" height="26" as="geometry" />
        </mxCell>
        <mxCell id="pEa-rMu9kl-3zr13X7H1-44" value="+ controller: type" style="text;strokeColor=none;fillColor=none;align=left;verticalAlign=top;spacingLeft=4;spacingRight=4;overflow=hidden;rotatable=0;points=[[0,0.5],[1,0.5]];portConstraint=eastwest;" parent="pEa-rMu9kl-3zr13X7H1-8" vertex="1">
          <mxGeometry y="78" width="160" height="26" as="geometry" />
        </mxCell>
        <mxCell id="pEa-rMu9kl-3zr13X7H1-45" value="+ observer: type" style="text;strokeColor=none;fillColor=none;align=left;verticalAlign=top;spacingLeft=4;spacingRight=4;overflow=hidden;rotatable=0;points=[[0,0.5],[1,0.5]];portConstraint=eastwest;" parent="pEa-rMu9kl-3zr13X7H1-8" vertex="1">
          <mxGeometry y="104" width="160" height="26" as="geometry" />
        </mxCell>
        <mxCell id="pEa-rMu9kl-3zr13X7H1-10" value="" style="line;strokeWidth=1;fillColor=none;align=left;verticalAlign=middle;spacingTop=-1;spacingLeft=3;spacingRight=3;rotatable=0;labelPosition=right;points=[];portConstraint=eastwest;" parent="pEa-rMu9kl-3zr13X7H1-8" vertex="1">
          <mxGeometry y="130" width="160" height="8" as="geometry" />
        </mxCell>
        <mxCell id="pEa-rMu9kl-3zr13X7H1-11" value="+ method(type): type" style="text;strokeColor=none;fillColor=none;align=left;verticalAlign=top;spacingLeft=4;spacingRight=4;overflow=hidden;rotatable=0;points=[[0,0.5],[1,0.5]];portConstraint=eastwest;" parent="pEa-rMu9kl-3zr13X7H1-8" vertex="1">
          <mxGeometry y="138" width="160" height="26" as="geometry" />
        </mxCell>
        <mxCell id="pEa-rMu9kl-3zr13X7H1-94" style="edgeStyle=orthogonalEdgeStyle;rounded=0;orthogonalLoop=1;jettySize=auto;html=1;exitX=0.5;exitY=0;exitDx=0;exitDy=0;entryX=1;entryY=0.5;entryDx=0;entryDy=0;" parent="1" source="pEa-rMu9kl-3zr13X7H1-46" target="pEa-rMu9kl-3zr13X7H1-9" edge="1">
          <mxGeometry relative="1" as="geometry" />
        </mxCell>
        <mxCell id="pEa-rMu9kl-3zr13X7H1-46" value="AssetsModel" style="swimlane;fontStyle=1;align=center;verticalAlign=top;childLayout=stackLayout;horizontal=1;startSize=26;horizontalStack=0;resizeParent=1;resizeParentMax=0;resizeLast=0;collapsible=1;marginBottom=0;" parent="1" vertex="1">
          <mxGeometry x="-4060" y="1580" width="160" height="216" as="geometry" />
        </mxCell>
        <mxCell id="pEa-rMu9kl-3zr13X7H1-47" value="+ assets: obj" style="text;strokeColor=none;fillColor=none;align=left;verticalAlign=top;spacingLeft=4;spacingRight=4;overflow=hidden;rotatable=0;points=[[0,0.5],[1,0.5]];portConstraint=eastwest;" parent="pEa-rMu9kl-3zr13X7H1-46" vertex="1">
          <mxGeometry y="26" width="160" height="26" as="geometry" />
        </mxCell>
        <mxCell id="pEa-rMu9kl-3zr13X7H1-66" value="+ atlases: obj" style="text;strokeColor=none;fillColor=none;align=left;verticalAlign=top;spacingLeft=4;spacingRight=4;overflow=hidden;rotatable=0;points=[[0,0.5],[1,0.5]];portConstraint=eastwest;" parent="pEa-rMu9kl-3zr13X7H1-46" vertex="1">
          <mxGeometry y="52" width="160" height="26" as="geometry" />
        </mxCell>
        <mxCell id="pEa-rMu9kl-3zr13X7H1-67" value="+ images: obj" style="text;strokeColor=none;fillColor=none;align=left;verticalAlign=top;spacingLeft=4;spacingRight=4;overflow=hidden;rotatable=0;points=[[0,0.5],[1,0.5]];portConstraint=eastwest;" parent="pEa-rMu9kl-3zr13X7H1-46" vertex="1">
          <mxGeometry y="78" width="160" height="26" as="geometry" />
        </mxCell>
        <mxCell id="pEa-rMu9kl-3zr13X7H1-48" value="" style="line;strokeWidth=1;fillColor=none;align=left;verticalAlign=middle;spacingTop=-1;spacingLeft=3;spacingRight=3;rotatable=0;labelPosition=right;points=[];portConstraint=eastwest;" parent="pEa-rMu9kl-3zr13X7H1-46" vertex="1">
          <mxGeometry y="104" width="160" height="8" as="geometry" />
        </mxCell>
        <mxCell id="pEa-rMu9kl-3zr13X7H1-49" value="+ getAtlases(type): [*]" style="text;strokeColor=none;fillColor=none;align=left;verticalAlign=top;spacingLeft=4;spacingRight=4;overflow=hidden;rotatable=0;points=[[0,0.5],[1,0.5]];portConstraint=eastwest;" parent="pEa-rMu9kl-3zr13X7H1-46" vertex="1">
          <mxGeometry y="112" width="160" height="26" as="geometry" />
        </mxCell>
        <mxCell id="pEa-rMu9kl-3zr13X7H1-68" value="+ getImages(type): [*]" style="text;strokeColor=none;fillColor=none;align=left;verticalAlign=top;spacingLeft=4;spacingRight=4;overflow=hidden;rotatable=0;points=[[0,0.5],[1,0.5]];portConstraint=eastwest;" parent="pEa-rMu9kl-3zr13X7H1-46" vertex="1">
          <mxGeometry y="138" width="160" height="26" as="geometry" />
        </mxCell>
        <mxCell id="pEa-rMu9kl-3zr13X7H1-69" value="+ getAllAssets(type): [*]" style="text;strokeColor=none;fillColor=none;align=left;verticalAlign=top;spacingLeft=4;spacingRight=4;overflow=hidden;rotatable=0;points=[[0,0.5],[1,0.5]];portConstraint=eastwest;" parent="pEa-rMu9kl-3zr13X7H1-46" vertex="1">
          <mxGeometry y="164" width="160" height="26" as="geometry" />
        </mxCell>
        <mxCell id="pEa-rMu9kl-3zr13X7H1-70" value="+ getAssetData(type): obj" style="text;strokeColor=none;fillColor=none;align=left;verticalAlign=top;spacingLeft=4;spacingRight=4;overflow=hidden;rotatable=0;points=[[0,0.5],[1,0.5]];portConstraint=eastwest;" parent="pEa-rMu9kl-3zr13X7H1-46" vertex="1">
          <mxGeometry y="190" width="160" height="26" as="geometry" />
        </mxCell>
        <mxCell id="pEa-rMu9kl-3zr13X7H1-97" style="edgeStyle=orthogonalEdgeStyle;rounded=0;orthogonalLoop=1;jettySize=auto;html=1;exitX=0.5;exitY=0;exitDx=0;exitDy=0;entryX=1;entryY=0.5;entryDx=0;entryDy=0;" parent="1" source="pEa-rMu9kl-3zr13X7H1-50" target="pEa-rMu9kl-3zr13X7H1-45" edge="1">
          <mxGeometry relative="1" as="geometry" />
        </mxCell>
        <mxCell id="pEa-rMu9kl-3zr13X7H1-50" value="AssetsObserver" style="swimlane;fontStyle=1;align=center;verticalAlign=top;childLayout=stackLayout;horizontal=1;startSize=26;horizontalStack=0;resizeParent=1;resizeParentMax=0;resizeLast=0;collapsible=1;marginBottom=0;" parent="1" vertex="1">
          <mxGeometry x="-3430" y="1580" width="160" height="86" as="geometry" />
        </mxCell>
        <mxCell id="pEa-rMu9kl-3zr13X7H1-51" value="+ field: type" style="text;strokeColor=none;fillColor=none;align=left;verticalAlign=top;spacingLeft=4;spacingRight=4;overflow=hidden;rotatable=0;points=[[0,0.5],[1,0.5]];portConstraint=eastwest;" parent="pEa-rMu9kl-3zr13X7H1-50" vertex="1">
          <mxGeometry y="26" width="160" height="26" as="geometry" />
        </mxCell>
        <mxCell id="pEa-rMu9kl-3zr13X7H1-52" value="" style="line;strokeWidth=1;fillColor=none;align=left;verticalAlign=middle;spacingTop=-1;spacingLeft=3;spacingRight=3;rotatable=0;labelPosition=right;points=[];portConstraint=eastwest;" parent="pEa-rMu9kl-3zr13X7H1-50" vertex="1">
          <mxGeometry y="52" width="160" height="8" as="geometry" />
        </mxCell>
        <mxCell id="pEa-rMu9kl-3zr13X7H1-53" value="+ method(type): type" style="text;strokeColor=none;fillColor=none;align=left;verticalAlign=top;spacingLeft=4;spacingRight=4;overflow=hidden;rotatable=0;points=[[0,0.5],[1,0.5]];portConstraint=eastwest;" parent="pEa-rMu9kl-3zr13X7H1-50" vertex="1">
          <mxGeometry y="60" width="160" height="26" as="geometry" />
        </mxCell>
        <mxCell id="pEa-rMu9kl-3zr13X7H1-95" style="edgeStyle=orthogonalEdgeStyle;rounded=0;orthogonalLoop=1;jettySize=auto;html=1;exitX=0.5;exitY=0;exitDx=0;exitDy=0;entryX=1;entryY=0.5;entryDx=0;entryDy=0;" parent="1" source="pEa-rMu9kl-3zr13X7H1-54" target="pEa-rMu9kl-3zr13X7H1-43" edge="1">
          <mxGeometry relative="1" as="geometry" />
        </mxCell>
        <mxCell id="pEa-rMu9kl-3zr13X7H1-54" value="AssetsView&#xa;" style="swimlane;fontStyle=1;align=center;verticalAlign=top;childLayout=stackLayout;horizontal=1;startSize=26;horizontalStack=0;resizeParent=1;resizeParentMax=0;resizeLast=0;collapsible=1;marginBottom=0;" parent="1" vertex="1">
          <mxGeometry x="-3870" y="1580" width="200" height="216" as="geometry" />
        </mxCell>
        <mxCell id="pEa-rMu9kl-3zr13X7H1-55" value="+ container: domElement" style="text;strokeColor=none;fillColor=none;align=left;verticalAlign=top;spacingLeft=4;spacingRight=4;overflow=hidden;rotatable=0;points=[[0,0.5],[1,0.5]];portConstraint=eastwest;" parent="pEa-rMu9kl-3zr13X7H1-54" vertex="1">
          <mxGeometry y="26" width="200" height="26" as="geometry" />
        </mxCell>
        <mxCell id="pEa-rMu9kl-3zr13X7H1-74" value="+ panels: []" style="text;strokeColor=none;fillColor=none;align=left;verticalAlign=top;spacingLeft=4;spacingRight=4;overflow=hidden;rotatable=0;points=[[0,0.5],[1,0.5]];portConstraint=eastwest;" parent="pEa-rMu9kl-3zr13X7H1-54" vertex="1">
          <mxGeometry y="52" width="200" height="26" as="geometry" />
        </mxCell>
        <mxCell id="pEa-rMu9kl-3zr13X7H1-75" value="+ imagesPanel: domElement" style="text;strokeColor=none;fillColor=none;align=left;verticalAlign=top;spacingLeft=4;spacingRight=4;overflow=hidden;rotatable=0;points=[[0,0.5],[1,0.5]];portConstraint=eastwest;" parent="pEa-rMu9kl-3zr13X7H1-54" vertex="1">
          <mxGeometry y="78" width="200" height="26" as="geometry" />
        </mxCell>
        <mxCell id="pEa-rMu9kl-3zr13X7H1-76" value="+ atlasesPanel: domElement" style="text;strokeColor=none;fillColor=none;align=left;verticalAlign=top;spacingLeft=4;spacingRight=4;overflow=hidden;rotatable=0;points=[[0,0.5],[1,0.5]];portConstraint=eastwest;" parent="pEa-rMu9kl-3zr13X7H1-54" vertex="1">
          <mxGeometry y="104" width="200" height="26" as="geometry" />
        </mxCell>
        <mxCell id="pEa-rMu9kl-3zr13X7H1-77" value="+ toolsPanel: domElement" style="text;strokeColor=none;fillColor=none;align=left;verticalAlign=top;spacingLeft=4;spacingRight=4;overflow=hidden;rotatable=0;points=[[0,0.5],[1,0.5]];portConstraint=eastwest;" parent="pEa-rMu9kl-3zr13X7H1-54" vertex="1">
          <mxGeometry y="130" width="200" height="26" as="geometry" />
        </mxCell>
        <mxCell id="pEa-rMu9kl-3zr13X7H1-78" value="+ assetDataView: AssetDataView" style="text;strokeColor=none;fillColor=none;align=left;verticalAlign=top;spacingLeft=4;spacingRight=4;overflow=hidden;rotatable=0;points=[[0,0.5],[1,0.5]];portConstraint=eastwest;" parent="pEa-rMu9kl-3zr13X7H1-54" vertex="1">
          <mxGeometry y="156" width="200" height="26" as="geometry" />
        </mxCell>
        <mxCell id="pEa-rMu9kl-3zr13X7H1-56" value="" style="line;strokeWidth=1;fillColor=none;align=left;verticalAlign=middle;spacingTop=-1;spacingLeft=3;spacingRight=3;rotatable=0;labelPosition=right;points=[];portConstraint=eastwest;" parent="pEa-rMu9kl-3zr13X7H1-54" vertex="1">
          <mxGeometry y="182" width="200" height="8" as="geometry" />
        </mxCell>
        <mxCell id="pEa-rMu9kl-3zr13X7H1-57" value="+ handleClick(type): void" style="text;strokeColor=none;fillColor=none;align=left;verticalAlign=top;spacingLeft=4;spacingRight=4;overflow=hidden;rotatable=0;points=[[0,0.5],[1,0.5]];portConstraint=eastwest;" parent="pEa-rMu9kl-3zr13X7H1-54" vertex="1">
          <mxGeometry y="190" width="200" height="26" as="geometry" />
        </mxCell>
        <mxCell id="pEa-rMu9kl-3zr13X7H1-96" style="edgeStyle=orthogonalEdgeStyle;rounded=0;orthogonalLoop=1;jettySize=auto;html=1;exitX=0.5;exitY=0;exitDx=0;exitDy=0;entryX=1;entryY=0.5;entryDx=0;entryDy=0;" parent="1" source="pEa-rMu9kl-3zr13X7H1-58" target="pEa-rMu9kl-3zr13X7H1-44" edge="1">
          <mxGeometry relative="1" as="geometry" />
        </mxCell>
        <mxCell id="pEa-rMu9kl-3zr13X7H1-58" value="AssetsController(model, view)&#xa;" style="swimlane;fontStyle=1;align=center;verticalAlign=top;childLayout=stackLayout;horizontal=1;startSize=26;horizontalStack=0;resizeParent=1;resizeParentMax=0;resizeLast=0;collapsible=1;marginBottom=0;" parent="1" vertex="1">
          <mxGeometry x="-3650" y="1580" width="180" height="164" as="geometry">
            <mxRectangle x="630" y="950" width="210" height="26" as="alternateBounds" />
          </mxGeometry>
        </mxCell>
        <mxCell id="pEa-rMu9kl-3zr13X7H1-59" value="+ model: type" style="text;strokeColor=none;fillColor=none;align=left;verticalAlign=top;spacingLeft=4;spacingRight=4;overflow=hidden;rotatable=0;points=[[0,0.5],[1,0.5]];portConstraint=eastwest;" parent="pEa-rMu9kl-3zr13X7H1-58" vertex="1">
          <mxGeometry y="26" width="180" height="26" as="geometry" />
        </mxCell>
        <mxCell id="pEa-rMu9kl-3zr13X7H1-71" value="+ view: type" style="text;strokeColor=none;fillColor=none;align=left;verticalAlign=top;spacingLeft=4;spacingRight=4;overflow=hidden;rotatable=0;points=[[0,0.5],[1,0.5]];portConstraint=eastwest;" parent="pEa-rMu9kl-3zr13X7H1-58" vertex="1">
          <mxGeometry y="52" width="180" height="26" as="geometry" />
        </mxCell>
        <mxCell id="pEa-rMu9kl-3zr13X7H1-60" value="" style="line;strokeWidth=1;fillColor=none;align=left;verticalAlign=middle;spacingTop=-1;spacingLeft=3;spacingRight=3;rotatable=0;labelPosition=right;points=[];portConstraint=eastwest;" parent="pEa-rMu9kl-3zr13X7H1-58" vertex="1">
          <mxGeometry y="78" width="180" height="8" as="geometry" />
        </mxCell>
        <mxCell id="pEa-rMu9kl-3zr13X7H1-61" value="+ onAssetClick(type): void" style="text;strokeColor=none;fillColor=none;align=left;verticalAlign=top;spacingLeft=4;spacingRight=4;overflow=hidden;rotatable=0;points=[[0,0.5],[1,0.5]];portConstraint=eastwest;" parent="pEa-rMu9kl-3zr13X7H1-58" vertex="1">
          <mxGeometry y="86" width="180" height="26" as="geometry" />
        </mxCell>
        <mxCell id="pEa-rMu9kl-3zr13X7H1-72" value="+ onPanelClick(type): void" style="text;strokeColor=none;fillColor=none;align=left;verticalAlign=top;spacingLeft=4;spacingRight=4;overflow=hidden;rotatable=0;points=[[0,0.5],[1,0.5]];portConstraint=eastwest;" parent="pEa-rMu9kl-3zr13X7H1-58" vertex="1">
          <mxGeometry y="112" width="180" height="26" as="geometry" />
        </mxCell>
        <mxCell id="pEa-rMu9kl-3zr13X7H1-73" value="+ onButtonClick(type): void" style="text;strokeColor=none;fillColor=none;align=left;verticalAlign=top;spacingLeft=4;spacingRight=4;overflow=hidden;rotatable=0;points=[[0,0.5],[1,0.5]];portConstraint=eastwest;" parent="pEa-rMu9kl-3zr13X7H1-58" vertex="1">
          <mxGeometry y="138" width="180" height="26" as="geometry" />
        </mxCell>
        <mxCell id="pEa-rMu9kl-3zr13X7H1-93" style="edgeStyle=orthogonalEdgeStyle;rounded=0;orthogonalLoop=1;jettySize=auto;html=1;exitX=0.5;exitY=0;exitDx=0;exitDy=0;entryX=1;entryY=0.5;entryDx=0;entryDy=0;" parent="1" source="pEa-rMu9kl-3zr13X7H1-83" target="pEa-rMu9kl-3zr13X7H1-78" edge="1">
          <mxGeometry relative="1" as="geometry" />
        </mxCell>
        <mxCell id="pEa-rMu9kl-3zr13X7H1-83" value="AssetDataView" style="swimlane;fontStyle=1;align=center;verticalAlign=top;childLayout=stackLayout;horizontal=1;startSize=26;horizontalStack=0;resizeParent=1;resizeParentMax=0;resizeLast=0;collapsible=1;marginBottom=0;" parent="1" vertex="1">
          <mxGeometry x="-3840" y="1870" width="190" height="138" as="geometry" />
        </mxCell>
        <mxCell id="pEa-rMu9kl-3zr13X7H1-84" value="+ image: domElement" style="text;strokeColor=none;fillColor=none;align=left;verticalAlign=top;spacingLeft=4;spacingRight=4;overflow=hidden;rotatable=0;points=[[0,0.5],[1,0.5]];portConstraint=eastwest;" parent="pEa-rMu9kl-3zr13X7H1-83" vertex="1">
          <mxGeometry y="26" width="190" height="26" as="geometry" />
        </mxCell>
        <mxCell id="pEa-rMu9kl-3zr13X7H1-87" value="+ imageData: obj" style="text;strokeColor=none;fillColor=none;align=left;verticalAlign=top;spacingLeft=4;spacingRight=4;overflow=hidden;rotatable=0;points=[[0,0.5],[1,0.5]];portConstraint=eastwest;" parent="pEa-rMu9kl-3zr13X7H1-83" vertex="1">
          <mxGeometry y="52" width="190" height="26" as="geometry" />
        </mxCell>
        <mxCell id="pEa-rMu9kl-3zr13X7H1-92" value="+ imageDataView: domElement" style="text;strokeColor=none;fillColor=none;align=left;verticalAlign=top;spacingLeft=4;spacingRight=4;overflow=hidden;rotatable=0;points=[[0,0.5],[1,0.5]];portConstraint=eastwest;" parent="pEa-rMu9kl-3zr13X7H1-83" vertex="1">
          <mxGeometry y="78" width="190" height="26" as="geometry" />
        </mxCell>
        <mxCell id="pEa-rMu9kl-3zr13X7H1-85" value="" style="line;strokeWidth=1;fillColor=none;align=left;verticalAlign=middle;spacingTop=-1;spacingLeft=3;spacingRight=3;rotatable=0;labelPosition=right;points=[];portConstraint=eastwest;" parent="pEa-rMu9kl-3zr13X7H1-83" vertex="1">
          <mxGeometry y="104" width="190" height="8" as="geometry" />
        </mxCell>
        <mxCell id="pEa-rMu9kl-3zr13X7H1-86" value="+ update(assetInfo): void" style="text;strokeColor=none;fillColor=none;align=left;verticalAlign=top;spacingLeft=4;spacingRight=4;overflow=hidden;rotatable=0;points=[[0,0.5],[1,0.5]];portConstraint=eastwest;" parent="pEa-rMu9kl-3zr13X7H1-83" vertex="1">
          <mxGeometry y="112" width="190" height="26" as="geometry" />
        </mxCell>
        <mxCell id="pEa-rMu9kl-3zr13X7H1-91" style="edgeStyle=orthogonalEdgeStyle;rounded=0;orthogonalLoop=1;jettySize=auto;html=1;exitX=0.5;exitY=0;exitDx=0;exitDy=0;entryX=1;entryY=0.5;entryDx=0;entryDy=0;" parent="1" source="pEa-rMu9kl-3zr13X7H1-89" target="pEa-rMu9kl-3zr13X7H1-87" edge="1">
          <mxGeometry relative="1" as="geometry" />
        </mxCell>
        <mxCell id="pEa-rMu9kl-3zr13X7H1-89" value="&lt;p style=&quot;margin: 0px ; margin-top: 4px ; text-align: center ; text-decoration: underline&quot;&gt;&lt;b&gt;AssetInfo:Type&lt;/b&gt;&lt;/p&gt;&lt;hr&gt;&lt;p style=&quot;margin: 0px ; margin-left: 8px&quot;&gt;type = String&lt;br&gt;width = Int&lt;br&gt;height = Int&lt;/p&gt;&lt;p style=&quot;margin: 0px ; margin-left: 8px&quot;&gt;path = String&lt;/p&gt;" style="verticalAlign=top;align=left;overflow=fill;fontSize=12;fontFamily=Helvetica;html=1;" parent="1" vertex="1">
          <mxGeometry x="-3590" y="1960" width="160" height="90" as="geometry" />
        </mxCell>
        <mxCell id="pEa-rMu9kl-3zr13X7H1-193" value="ChildrenEditor" style="swimlane;fontStyle=1;align=center;verticalAlign=top;childLayout=stackLayout;horizontal=1;startSize=26;horizontalStack=0;resizeParent=1;resizeParentMax=0;resizeLast=0;collapsible=1;marginBottom=0;" parent="1" vertex="1">
          <mxGeometry x="-2010" y="-650" width="160" height="138" as="geometry" />
        </mxCell>
        <mxCell id="pEa-rMu9kl-3zr13X7H1-194" value="+ childrenTrees: type" style="text;strokeColor=none;fillColor=none;align=left;verticalAlign=top;spacingLeft=4;spacingRight=4;overflow=hidden;rotatable=0;points=[[0,0.5],[1,0.5]];portConstraint=eastwest;" parent="pEa-rMu9kl-3zr13X7H1-193" vertex="1">
          <mxGeometry y="26" width="160" height="26" as="geometry" />
        </mxCell>
        <mxCell id="pEa-rMu9kl-3zr13X7H1-198" value="+ elementsBuilder: type" style="text;strokeColor=none;fillColor=none;align=left;verticalAlign=top;spacingLeft=4;spacingRight=4;overflow=hidden;rotatable=0;points=[[0,0.5],[1,0.5]];portConstraint=eastwest;" parent="pEa-rMu9kl-3zr13X7H1-193" vertex="1">
          <mxGeometry y="52" width="160" height="26" as="geometry" />
        </mxCell>
        <mxCell id="pEa-rMu9kl-3zr13X7H1-197" value="+ observer: Observer" style="text;strokeColor=none;fillColor=none;align=left;verticalAlign=top;spacingLeft=4;spacingRight=4;overflow=hidden;rotatable=0;points=[[0,0.5],[1,0.5]];portConstraint=eastwest;" parent="pEa-rMu9kl-3zr13X7H1-193" vertex="1">
          <mxGeometry y="78" width="160" height="26" as="geometry" />
        </mxCell>
        <mxCell id="pEa-rMu9kl-3zr13X7H1-195" value="" style="line;strokeWidth=1;fillColor=none;align=left;verticalAlign=middle;spacingTop=-1;spacingLeft=3;spacingRight=3;rotatable=0;labelPosition=right;points=[];portConstraint=eastwest;" parent="pEa-rMu9kl-3zr13X7H1-193" vertex="1">
          <mxGeometry y="104" width="160" height="8" as="geometry" />
        </mxCell>
        <mxCell id="pEa-rMu9kl-3zr13X7H1-196" value="+ method(type): type" style="text;strokeColor=none;fillColor=none;align=left;verticalAlign=top;spacingLeft=4;spacingRight=4;overflow=hidden;rotatable=0;points=[[0,0.5],[1,0.5]];portConstraint=eastwest;" parent="pEa-rMu9kl-3zr13X7H1-193" vertex="1">
          <mxGeometry y="112" width="160" height="26" as="geometry" />
        </mxCell>
        <mxCell id="pEa-rMu9kl-3zr13X7H1-205" style="edgeStyle=orthogonalEdgeStyle;rounded=0;orthogonalLoop=1;jettySize=auto;html=1;exitX=0.5;exitY=0;exitDx=0;exitDy=0;entryX=1;entryY=0.5;entryDx=0;entryDy=0;" parent="1" source="pEa-rMu9kl-3zr13X7H1-200" target="pEa-rMu9kl-3zr13X7H1-198" edge="1">
          <mxGeometry relative="1" as="geometry" />
        </mxCell>
        <mxCell id="pEa-rMu9kl-3zr13X7H1-200" value="ElementsBuilder" style="swimlane;fontStyle=1;align=center;verticalAlign=top;childLayout=stackLayout;horizontal=1;startSize=26;horizontalStack=0;resizeParent=1;resizeParentMax=0;resizeLast=0;collapsible=1;marginBottom=0;" parent="1" vertex="1">
          <mxGeometry x="-1730" y="-526" width="160" height="86" as="geometry" />
        </mxCell>
        <mxCell id="pEa-rMu9kl-3zr13X7H1-201" value="..." style="text;strokeColor=none;fillColor=none;align=left;verticalAlign=top;spacingLeft=4;spacingRight=4;overflow=hidden;rotatable=0;points=[[0,0.5],[1,0.5]];portConstraint=eastwest;" parent="pEa-rMu9kl-3zr13X7H1-200" vertex="1">
          <mxGeometry y="26" width="160" height="26" as="geometry" />
        </mxCell>
        <mxCell id="pEa-rMu9kl-3zr13X7H1-202" value="" style="line;strokeWidth=1;fillColor=none;align=left;verticalAlign=middle;spacingTop=-1;spacingLeft=3;spacingRight=3;rotatable=0;labelPosition=right;points=[];portConstraint=eastwest;" parent="pEa-rMu9kl-3zr13X7H1-200" vertex="1">
          <mxGeometry y="52" width="160" height="8" as="geometry" />
        </mxCell>
        <mxCell id="pEa-rMu9kl-3zr13X7H1-203" value="..." style="text;strokeColor=none;fillColor=none;align=left;verticalAlign=top;spacingLeft=4;spacingRight=4;overflow=hidden;rotatable=0;points=[[0,0.5],[1,0.5]];portConstraint=eastwest;" parent="pEa-rMu9kl-3zr13X7H1-200" vertex="1">
          <mxGeometry y="60" width="160" height="26" as="geometry" />
        </mxCell>
        <mxCell id="iZDqGjUydslP9kxT50Uf-1" value="LEInterpreter" style="swimlane;fontStyle=1;align=center;verticalAlign=top;childLayout=stackLayout;horizontal=1;startSize=26;horizontalStack=0;resizeParent=1;resizeParentMax=0;resizeLast=0;collapsible=1;marginBottom=0;" parent="1" vertex="1">
          <mxGeometry x="-3320" y="224" width="160" height="246" as="geometry" />
        </mxCell>
        <mxCell id="iZDqGjUydslP9kxT50Uf-2" value="..." style="text;strokeColor=none;fillColor=none;align=left;verticalAlign=top;spacingLeft=4;spacingRight=4;overflow=hidden;rotatable=0;points=[[0,0.5],[1,0.5]];portConstraint=eastwest;" parent="iZDqGjUydslP9kxT50Uf-1" vertex="1">
          <mxGeometry y="26" width="160" height="26" as="geometry" />
        </mxCell>
        <mxCell id="iZDqGjUydslP9kxT50Uf-3" value="" style="line;strokeWidth=1;fillColor=none;align=left;verticalAlign=middle;spacingTop=-1;spacingLeft=3;spacingRight=3;rotatable=0;labelPosition=right;points=[];portConstraint=eastwest;" parent="iZDqGjUydslP9kxT50Uf-1" vertex="1">
          <mxGeometry y="52" width="160" height="8" as="geometry" />
        </mxCell>
        <mxCell id="iZDqGjUydslP9kxT50Uf-4" value="+ onResize(): void" style="text;strokeColor=none;fillColor=none;align=left;verticalAlign=top;spacingLeft=4;spacingRight=4;overflow=hidden;rotatable=0;points=[[0,0.5],[1,0.5]];portConstraint=eastwest;" parent="iZDqGjUydslP9kxT50Uf-1" vertex="1">
          <mxGeometry y="60" width="160" height="26" as="geometry" />
        </mxCell>
        <mxCell id="iZDqGjUydslP9kxT50Uf-117" value="..." style="text;strokeColor=none;fillColor=none;align=left;verticalAlign=top;spacingLeft=4;spacingRight=4;overflow=hidden;rotatable=0;points=[[0,0.5],[1,0.5]];portConstraint=eastwest;" parent="iZDqGjUydslP9kxT50Uf-1" vertex="1">
          <mxGeometry y="86" width="160" height="26" as="geometry" />
        </mxCell>
        <mxCell id="iZDqGjUydslP9kxT50Uf-63" value="" style="line;strokeWidth=1;fillColor=none;align=left;verticalAlign=middle;spacingTop=-1;spacingLeft=3;spacingRight=3;rotatable=0;labelPosition=right;points=[];portConstraint=eastwest;" parent="iZDqGjUydslP9kxT50Uf-1" vertex="1">
          <mxGeometry y="112" width="160" height="8" as="geometry" />
        </mxCell>
        <mxCell id="iZDqGjUydslP9kxT50Uf-62" value="Основной класс для интерпретации конфига созданного в редакторе. Он будет содержать все необходимые методы для правильной интерпретации конфига редкатора" style="text;strokeColor=none;fillColor=none;align=left;verticalAlign=top;spacingLeft=4;spacingRight=4;overflow=hidden;rotatable=0;points=[[0,0.5],[1,0.5]];portConstraint=eastwest;whiteSpace=wrap;" parent="iZDqGjUydslP9kxT50Uf-1" vertex="1">
          <mxGeometry y="120" width="160" height="126" as="geometry" />
        </mxCell>
        <mxCell id="iZDqGjUydslP9kxT50Uf-5" value="&lt;u&gt;LayoutData&amp;nbsp;&lt;/u&gt;" style="swimlane;html=1;fontStyle=1;align=center;verticalAlign=top;childLayout=stackLayout;horizontal=1;startSize=26;horizontalStack=0;resizeParent=1;resizeLast=0;collapsible=1;marginBottom=0;swimlaneFillColor=#ffffff;rounded=0;shadow=0;comic=0;labelBackgroundColor=none;strokeWidth=1;fillColor=none;fontFamily=Verdana;fontSize=12" parent="1" vertex="1">
          <mxGeometry x="-4050" width="250" height="76" as="geometry" />
        </mxCell>
        <mxCell id="iZDqGjUydslP9kxT50Uf-6" value="+ landscape: LayoutElDataComponent (obj)" style="text;html=1;strokeColor=none;fillColor=none;align=left;verticalAlign=top;spacingLeft=4;spacingRight=4;whiteSpace=wrap;overflow=hidden;rotatable=0;points=[[0,0.5],[1,0.5]];portConstraint=eastwest;" parent="iZDqGjUydslP9kxT50Uf-5" vertex="1">
          <mxGeometry y="26" width="250" height="24" as="geometry" />
        </mxCell>
        <mxCell id="iZDqGjUydslP9kxT50Uf-7" value="+ portrait: LayoutElDataComponent (obj)" style="text;html=1;strokeColor=none;fillColor=none;align=left;verticalAlign=top;spacingLeft=4;spacingRight=4;whiteSpace=wrap;overflow=hidden;rotatable=0;points=[[0,0.5],[1,0.5]];portConstraint=eastwest;" parent="iZDqGjUydslP9kxT50Uf-5" vertex="1">
          <mxGeometry y="50" width="250" height="26" as="geometry" />
        </mxCell>
        <mxCell id="iZDqGjUydslP9kxT50Uf-8" value="&lt;u&gt;LayoutDataComponent&lt;/u&gt;" style="swimlane;html=1;fontStyle=1;align=center;verticalAlign=top;childLayout=stackLayout;horizontal=1;startSize=26;horizontalStack=0;resizeParent=1;resizeLast=0;collapsible=1;marginBottom=0;swimlaneFillColor=#ffffff;rounded=0;shadow=0;comic=0;labelBackgroundColor=none;strokeWidth=1;fillColor=none;fontFamily=Verdana;fontSize=12" parent="1" vertex="1">
          <mxGeometry x="-4120" y="470" width="200" height="260" as="geometry" />
        </mxCell>
        <mxCell id="iZDqGjUydslP9kxT50Uf-9" value="+ entityId: String" style="text;html=1;strokeColor=none;fillColor=none;align=left;verticalAlign=top;spacingLeft=4;spacingRight=4;whiteSpace=wrap;overflow=hidden;rotatable=0;points=[[0,0.5],[1,0.5]];portConstraint=eastwest;" parent="iZDqGjUydslP9kxT50Uf-8" vertex="1">
          <mxGeometry y="26" width="200" height="26" as="geometry" />
        </mxCell>
        <mxCell id="iZDqGjUydslP9kxT50Uf-10" value="+ transform: transformObj (obj)" style="text;html=1;strokeColor=none;fillColor=none;align=left;verticalAlign=top;spacingLeft=4;spacingRight=4;whiteSpace=wrap;overflow=hidden;rotatable=0;points=[[0,0.5],[1,0.5]];portConstraint=eastwest;" parent="iZDqGjUydslP9kxT50Uf-8" vertex="1">
          <mxGeometry y="52" width="200" height="26" as="geometry" />
        </mxCell>
        <mxCell id="iZDqGjUydslP9kxT50Uf-11" value="+ alpha: Int (0-1)" style="text;html=1;strokeColor=none;fillColor=none;align=left;verticalAlign=top;spacingLeft=4;spacingRight=4;whiteSpace=wrap;overflow=hidden;rotatable=0;points=[[0,0.5],[1,0.5]];portConstraint=eastwest;" parent="iZDqGjUydslP9kxT50Uf-8" vertex="1">
          <mxGeometry y="78" width="200" height="26" as="geometry" />
        </mxCell>
        <mxCell id="iZDqGjUydslP9kxT50Uf-12" value="+ anchor: Obj" style="text;html=1;strokeColor=none;fillColor=none;align=left;verticalAlign=top;spacingLeft=4;spacingRight=4;whiteSpace=wrap;overflow=hidden;rotatable=0;points=[[0,0.5],[1,0.5]];portConstraint=eastwest;" parent="iZDqGjUydslP9kxT50Uf-8" vertex="1">
          <mxGeometry y="104" width="200" height="26" as="geometry" />
        </mxCell>
        <mxCell id="iZDqGjUydslP9kxT50Uf-13" value="+ visible: Boolean" style="text;html=1;strokeColor=none;fillColor=none;align=left;verticalAlign=top;spacingLeft=4;spacingRight=4;whiteSpace=wrap;overflow=hidden;rotatable=0;points=[[0,0.5],[1,0.5]];portConstraint=eastwest;" parent="iZDqGjUydslP9kxT50Uf-8" vertex="1">
          <mxGeometry y="130" width="200" height="26" as="geometry" />
        </mxCell>
        <mxCell id="iZDqGjUydslP9kxT50Uf-14" value="+ width: Int" style="text;html=1;strokeColor=none;fillColor=none;align=left;verticalAlign=top;spacingLeft=4;spacingRight=4;whiteSpace=wrap;overflow=hidden;rotatable=0;points=[[0,0.5],[1,0.5]];portConstraint=eastwest;" parent="iZDqGjUydslP9kxT50Uf-8" vertex="1">
          <mxGeometry y="156" width="200" height="26" as="geometry" />
        </mxCell>
        <mxCell id="iZDqGjUydslP9kxT50Uf-15" value="+ height: Int" style="text;html=1;strokeColor=none;fillColor=none;align=left;verticalAlign=top;spacingLeft=4;spacingRight=4;whiteSpace=wrap;overflow=hidden;rotatable=0;points=[[0,0.5],[1,0.5]];portConstraint=eastwest;" parent="iZDqGjUydslP9kxT50Uf-8" vertex="1">
          <mxGeometry y="182" width="200" height="26" as="geometry" />
        </mxCell>
        <mxCell id="iZDqGjUydslP9kxT50Uf-16" value="+ setOnce: Boolean" style="text;html=1;strokeColor=none;fillColor=none;align=left;verticalAlign=top;spacingLeft=4;spacingRight=4;whiteSpace=wrap;overflow=hidden;rotatable=0;points=[[0,0.5],[1,0.5]];portConstraint=eastwest;" parent="iZDqGjUydslP9kxT50Uf-8" vertex="1">
          <mxGeometry y="208" width="200" height="26" as="geometry" />
        </mxCell>
        <mxCell id="iZDqGjUydslP9kxT50Uf-17" value="+ platformSpecific: Boolean" style="text;html=1;strokeColor=none;fillColor=none;align=left;verticalAlign=top;spacingLeft=4;spacingRight=4;whiteSpace=wrap;overflow=hidden;rotatable=0;points=[[0,0.5],[1,0.5]];portConstraint=eastwest;" parent="iZDqGjUydslP9kxT50Uf-8" vertex="1">
          <mxGeometry y="234" width="200" height="26" as="geometry" />
        </mxCell>
        <mxCell id="iZDqGjUydslP9kxT50Uf-18" value="&lt;u&gt;transformObj&lt;/u&gt;" style="swimlane;html=1;fontStyle=1;align=center;verticalAlign=top;childLayout=stackLayout;horizontal=1;startSize=26;horizontalStack=0;resizeParent=1;resizeLast=0;collapsible=1;marginBottom=0;swimlaneFillColor=#ffffff;rounded=0;shadow=0;comic=0;labelBackgroundColor=none;strokeWidth=1;fillColor=none;fontFamily=Verdana;fontSize=12" parent="1" vertex="1">
          <mxGeometry x="-3860" y="560" width="370" height="364" as="geometry" />
        </mxCell>
        <mxCell id="iZDqGjUydslP9kxT50Uf-19" value="+ scale: obj" style="text;html=1;strokeColor=none;fillColor=none;align=left;verticalAlign=top;spacingLeft=4;spacingRight=4;whiteSpace=wrap;overflow=hidden;rotatable=0;points=[[0,0.5],[1,0.5]];portConstraint=eastwest;" parent="iZDqGjUydslP9kxT50Uf-18" vertex="1">
          <mxGeometry y="26" width="370" height="26" as="geometry" />
        </mxCell>
        <mxCell id="iZDqGjUydslP9kxT50Uf-20" value="+ rotation: int" style="text;html=1;strokeColor=none;fillColor=none;align=left;verticalAlign=top;spacingLeft=4;spacingRight=4;whiteSpace=wrap;overflow=hidden;rotatable=0;points=[[0,0.5],[1,0.5]];portConstraint=eastwest;" parent="iZDqGjUydslP9kxT50Uf-18" vertex="1">
          <mxGeometry y="52" width="370" height="26" as="geometry" />
        </mxCell>
        <mxCell id="iZDqGjUydslP9kxT50Uf-21" value="+ scew: obj" style="text;html=1;strokeColor=none;fillColor=none;align=left;verticalAlign=top;spacingLeft=4;spacingRight=4;whiteSpace=wrap;overflow=hidden;rotatable=0;points=[[0,0.5],[1,0.5]];portConstraint=eastwest;" parent="iZDqGjUydslP9kxT50Uf-18" vertex="1">
          <mxGeometry y="78" width="370" height="26" as="geometry" />
        </mxCell>
        <mxCell id="iZDqGjUydslP9kxT50Uf-22" value="+ position: obj" style="text;html=1;strokeColor=none;fillColor=none;align=left;verticalAlign=top;spacingLeft=4;spacingRight=4;whiteSpace=wrap;overflow=hidden;rotatable=0;points=[[0,0.5],[1,0.5]];portConstraint=eastwest;" parent="iZDqGjUydslP9kxT50Uf-18" vertex="1">
          <mxGeometry y="104" width="370" height="26" as="geometry" />
        </mxCell>
        <mxCell id="iZDqGjUydslP9kxT50Uf-23" value="+ flipX: Boolean" style="text;html=1;strokeColor=none;fillColor=none;align=left;verticalAlign=top;spacingLeft=4;spacingRight=4;whiteSpace=wrap;overflow=hidden;rotatable=0;points=[[0,0.5],[1,0.5]];portConstraint=eastwest;" parent="iZDqGjUydslP9kxT50Uf-18" vertex="1">
          <mxGeometry y="130" width="370" height="26" as="geometry" />
        </mxCell>
        <mxCell id="iZDqGjUydslP9kxT50Uf-24" value="+ flipY: Boolean" style="text;html=1;strokeColor=none;fillColor=none;align=left;verticalAlign=top;spacingLeft=4;spacingRight=4;whiteSpace=wrap;overflow=hidden;rotatable=0;points=[[0,0.5],[1,0.5]];portConstraint=eastwest;" parent="iZDqGjUydslP9kxT50Uf-18" vertex="1">
          <mxGeometry y="156" width="370" height="26" as="geometry" />
        </mxCell>
        <mxCell id="iZDqGjUydslP9kxT50Uf-25" value="+ fromTop: Boolean" style="text;html=1;strokeColor=none;fillColor=none;align=left;verticalAlign=top;spacingLeft=4;spacingRight=4;whiteSpace=wrap;overflow=hidden;rotatable=0;points=[[0,0.5],[1,0.5]];portConstraint=eastwest;" parent="iZDqGjUydslP9kxT50Uf-18" vertex="1">
          <mxGeometry y="182" width="370" height="26" as="geometry" />
        </mxCell>
        <mxCell id="iZDqGjUydslP9kxT50Uf-26" value="+ fromBottom: Boolean" style="text;html=1;strokeColor=none;fillColor=none;align=left;verticalAlign=top;spacingLeft=4;spacingRight=4;whiteSpace=wrap;overflow=hidden;rotatable=0;points=[[0,0.5],[1,0.5]];portConstraint=eastwest;" parent="iZDqGjUydslP9kxT50Uf-18" vertex="1">
          <mxGeometry y="208" width="370" height="26" as="geometry" />
        </mxCell>
        <mxCell id="iZDqGjUydslP9kxT50Uf-27" value="+ fromLeft: Boolean" style="text;html=1;strokeColor=none;fillColor=none;align=left;verticalAlign=top;spacingLeft=4;spacingRight=4;whiteSpace=wrap;overflow=hidden;rotatable=0;points=[[0,0.5],[1,0.5]];portConstraint=eastwest;" parent="iZDqGjUydslP9kxT50Uf-18" vertex="1">
          <mxGeometry y="234" width="370" height="26" as="geometry" />
        </mxCell>
        <mxCell id="iZDqGjUydslP9kxT50Uf-28" value="+ fromRight: Boolean" style="text;html=1;strokeColor=none;fillColor=none;align=left;verticalAlign=top;spacingLeft=4;spacingRight=4;whiteSpace=wrap;overflow=hidden;rotatable=0;points=[[0,0.5],[1,0.5]];portConstraint=eastwest;" parent="iZDqGjUydslP9kxT50Uf-18" vertex="1">
          <mxGeometry y="260" width="370" height="26" as="geometry" />
        </mxCell>
        <mxCell id="iZDqGjUydslP9kxT50Uf-29" value="+ fromElement: String(entityId)" style="text;html=1;strokeColor=none;fillColor=none;align=left;verticalAlign=top;spacingLeft=4;spacingRight=4;whiteSpace=wrap;overflow=hidden;rotatable=0;points=[[0,0.5],[1,0.5]];portConstraint=eastwest;" parent="iZDqGjUydslP9kxT50Uf-18" vertex="1">
          <mxGeometry y="286" width="370" height="26" as="geometry" />
        </mxCell>
        <mxCell id="iZDqGjUydslP9kxT50Uf-30" value="+ betweenElements: [String(entityId),String(entityId)]" style="text;html=1;strokeColor=none;fillColor=none;align=left;verticalAlign=top;spacingLeft=4;spacingRight=4;whiteSpace=wrap;overflow=hidden;rotatable=0;points=[[0,0.5],[1,0.5]];portConstraint=eastwest;" parent="iZDqGjUydslP9kxT50Uf-18" vertex="1">
          <mxGeometry y="312" width="370" height="26" as="geometry" />
        </mxCell>
        <mxCell id="iZDqGjUydslP9kxT50Uf-31" value="+ betweenSideAndElement: [String(entityId), String(sideName)]" style="text;html=1;strokeColor=none;fillColor=none;align=left;verticalAlign=top;spacingLeft=4;spacingRight=4;whiteSpace=wrap;overflow=hidden;rotatable=0;points=[[0,0.5],[1,0.5]];portConstraint=eastwest;" parent="iZDqGjUydslP9kxT50Uf-18" vertex="1">
          <mxGeometry y="338" width="370" height="26" as="geometry" />
        </mxCell>
        <mxCell id="iZDqGjUydslP9kxT50Uf-32" value="editorConfig" style="swimlane;fontStyle=5;childLayout=stackLayout;horizontal=1;startSize=26;fillColor=none;horizontalStack=0;resizeParent=1;resizeParentMax=0;resizeLast=0;collapsible=1;marginBottom=0;" parent="1" vertex="1">
          <mxGeometry x="-4240" y="-250" width="290" height="104" as="geometry" />
        </mxCell>
        <mxCell id="iZDqGjUydslP9kxT50Uf-33" value="+ editorObjects: Obj" style="text;strokeColor=none;fillColor=none;align=left;verticalAlign=top;spacingLeft=4;spacingRight=4;overflow=hidden;rotatable=0;points=[[0,0.5],[1,0.5]];portConstraint=eastwest;" parent="iZDqGjUydslP9kxT50Uf-32" vertex="1">
          <mxGeometry y="26" width="290" height="26" as="geometry" />
        </mxCell>
        <mxCell id="iZDqGjUydslP9kxT50Uf-34" value="+ objectsData: Obj " style="text;strokeColor=none;fillColor=none;align=left;verticalAlign=top;spacingLeft=4;spacingRight=4;overflow=hidden;rotatable=0;points=[[0,0.5],[1,0.5]];portConstraint=eastwest;" parent="iZDqGjUydslP9kxT50Uf-32" vertex="1">
          <mxGeometry y="52" width="290" height="26" as="geometry" />
        </mxCell>
        <mxCell id="iZDqGjUydslP9kxT50Uf-35" value="+ resizeData: Arr" style="text;strokeColor=none;fillColor=none;align=left;verticalAlign=top;spacingLeft=4;spacingRight=4;overflow=hidden;rotatable=0;points=[[0,0.5],[1,0.5]];portConstraint=eastwest;" parent="iZDqGjUydslP9kxT50Uf-32" vertex="1">
          <mxGeometry y="78" width="290" height="26" as="geometry" />
        </mxCell>
        <mxCell id="iZDqGjUydslP9kxT50Uf-36" value="Array[LayoutData]" style="html=1;fontColor=#000000;" parent="1" vertex="1">
          <mxGeometry x="-4075" y="290" width="110" height="50" as="geometry" />
        </mxCell>
        <mxCell id="iZDqGjUydslP9kxT50Uf-37" value="&lt;b&gt;&lt;u&gt;Object &lt;/u&gt;&lt;/b&gt;c ключами соответсвующими entityId елемента&amp;nbsp;" style="rounded=0;whiteSpace=wrap;html=1;fontColor=#000000;" parent="1" vertex="1">
          <mxGeometry x="-4440" width="120" height="60" as="geometry" />
        </mxCell>
        <mxCell id="iZDqGjUydslP9kxT50Uf-38" value="&lt;b&gt;&lt;u&gt;Object&lt;/u&gt;&lt;/b&gt; c ключами соответсвующими entityId елемента&amp;nbsp;" style="rounded=0;whiteSpace=wrap;html=1;fontColor=#000000;" parent="1" vertex="1">
          <mxGeometry x="-4600" y="-180" width="120" height="60" as="geometry" />
        </mxCell>
        <mxCell id="iZDqGjUydslP9kxT50Uf-39" value="objectConfig" style="swimlane;fontStyle=5;childLayout=stackLayout;horizontal=1;startSize=26;fillColor=none;horizontalStack=0;resizeParent=1;resizeParentMax=0;resizeLast=0;collapsible=1;marginBottom=0;fontColor=#000000;" parent="1" vertex="1">
          <mxGeometry x="-4450" y="112" width="140" height="78" as="geometry" />
        </mxCell>
        <mxCell id="iZDqGjUydslP9kxT50Uf-40" value="+ entityId: String" style="text;strokeColor=none;fillColor=none;align=left;verticalAlign=top;spacingLeft=4;spacingRight=4;overflow=hidden;rotatable=0;points=[[0,0.5],[1,0.5]];portConstraint=eastwest;" parent="iZDqGjUydslP9kxT50Uf-39" vertex="1">
          <mxGeometry y="26" width="140" height="26" as="geometry" />
        </mxCell>
        <mxCell id="iZDqGjUydslP9kxT50Uf-41" value="+ type: String" style="text;strokeColor=none;fillColor=none;align=left;verticalAlign=top;spacingLeft=4;spacingRight=4;overflow=hidden;rotatable=0;points=[[0,0.5],[1,0.5]];portConstraint=eastwest;" parent="iZDqGjUydslP9kxT50Uf-39" vertex="1">
          <mxGeometry y="52" width="140" height="26" as="geometry" />
        </mxCell>
        <mxCell id="iZDqGjUydslP9kxT50Uf-42" value="aspectRatios" style="swimlane;fontStyle=5;childLayout=stackLayout;horizontal=1;startSize=26;fillColor=none;horizontalStack=0;resizeParent=1;resizeParentMax=0;resizeLast=0;collapsible=1;marginBottom=0;" parent="1" vertex="1">
          <mxGeometry x="-4030" y="-110" width="230" height="78" as="geometry" />
        </mxCell>
        <mxCell id="iZDqGjUydslP9kxT50Uf-43" value="+ &quot;1.7777 - 2.1&quot;: arr" style="text;strokeColor=none;fillColor=none;align=left;verticalAlign=top;spacingLeft=4;spacingRight=4;overflow=hidden;rotatable=0;points=[[0,0.5],[1,0.5]];portConstraint=eastwest;" parent="iZDqGjUydslP9kxT50Uf-42" vertex="1">
          <mxGeometry y="26" width="230" height="26" as="geometry" />
        </mxCell>
        <mxCell id="iZDqGjUydslP9kxT50Uf-44" value="+ &quot;1 - 1.3&quot;: arr" style="text;strokeColor=none;fillColor=none;align=left;verticalAlign=top;spacingLeft=4;spacingRight=4;overflow=hidden;rotatable=0;points=[[0,0.5],[1,0.5]];portConstraint=eastwest;" parent="iZDqGjUydslP9kxT50Uf-42" vertex="1">
          <mxGeometry y="52" width="230" height="26" as="geometry" />
        </mxCell>
        <mxCell id="iZDqGjUydslP9kxT50Uf-45" value="Platforms" style="swimlane;fontStyle=5;align=center;verticalAlign=top;childLayout=stackLayout;horizontal=1;startSize=26;horizontalStack=0;resizeParent=1;resizeParentMax=0;resizeLast=0;collapsible=1;marginBottom=0;" parent="1" vertex="1">
          <mxGeometry x="-4060" y="130" width="160" height="104" as="geometry" />
        </mxCell>
        <mxCell id="iZDqGjUydslP9kxT50Uf-46" value="+ default: Array" style="text;strokeColor=none;fillColor=none;align=left;verticalAlign=top;spacingLeft=4;spacingRight=4;overflow=hidden;rotatable=0;points=[[0,0.5],[1,0.5]];portConstraint=eastwest;" parent="iZDqGjUydslP9kxT50Uf-45" vertex="1">
          <mxGeometry y="26" width="160" height="26" as="geometry" />
        </mxCell>
        <mxCell id="iZDqGjUydslP9kxT50Uf-47" value="+ vungle: Array" style="text;strokeColor=none;fillColor=none;align=left;verticalAlign=top;spacingLeft=4;spacingRight=4;overflow=hidden;rotatable=0;points=[[0,0.5],[1,0.5]];portConstraint=eastwest;" parent="iZDqGjUydslP9kxT50Uf-45" vertex="1">
          <mxGeometry y="52" width="160" height="26" as="geometry" />
        </mxCell>
        <mxCell id="iZDqGjUydslP9kxT50Uf-48" value="..." style="text;strokeColor=none;fillColor=none;align=left;verticalAlign=top;spacingLeft=4;spacingRight=4;overflow=hidden;rotatable=0;points=[[0,0.5],[1,0.5]];portConstraint=eastwest;" parent="iZDqGjUydslP9kxT50Uf-45" vertex="1">
          <mxGeometry y="78" width="160" height="26" as="geometry" />
        </mxCell>
        <mxCell id="iZDqGjUydslP9kxT50Uf-49" value="" style="endArrow=diamondThin;endFill=1;endSize=24;html=1;exitX=0.442;exitY=-0.05;exitDx=0;exitDy=0;exitPerimeter=0;entryX=0;entryY=0.5;entryDx=0;entryDy=0;" parent="1" source="iZDqGjUydslP9kxT50Uf-38" target="iZDqGjUydslP9kxT50Uf-33" edge="1">
          <mxGeometry width="160" relative="1" as="geometry">
            <mxPoint x="-4560" y="-240" as="sourcePoint" />
            <mxPoint x="-4400" y="-240" as="targetPoint" />
            <Array as="points">
              <mxPoint x="-4547" y="-211" />
            </Array>
          </mxGeometry>
        </mxCell>
        <mxCell id="iZDqGjUydslP9kxT50Uf-50" value="" style="endArrow=diamondThin;endFill=1;endSize=24;html=1;exitX=0.5;exitY=0;exitDx=0;exitDy=0;entryX=0;entryY=0.5;entryDx=0;entryDy=0;" parent="1" source="iZDqGjUydslP9kxT50Uf-37" target="iZDqGjUydslP9kxT50Uf-34" edge="1">
          <mxGeometry width="160" relative="1" as="geometry">
            <mxPoint x="-4426.96" y="-40" as="sourcePoint" />
            <mxPoint x="-4120" y="-68" as="targetPoint" />
            <Array as="points">
              <mxPoint x="-4380" y="-185" />
            </Array>
          </mxGeometry>
        </mxCell>
        <mxCell id="iZDqGjUydslP9kxT50Uf-51" value="" style="endArrow=diamondThin;endFill=1;endSize=24;html=1;exitX=0.5;exitY=0;exitDx=0;exitDy=0;entryX=0.5;entryY=1;entryDx=0;entryDy=0;" parent="1" source="iZDqGjUydslP9kxT50Uf-39" target="iZDqGjUydslP9kxT50Uf-37" edge="1">
          <mxGeometry width="160" relative="1" as="geometry">
            <mxPoint x="-4370" y="10" as="sourcePoint" />
            <mxPoint x="-4230" y="-175" as="targetPoint" />
          </mxGeometry>
        </mxCell>
        <mxCell id="iZDqGjUydslP9kxT50Uf-52" value="" style="endArrow=diamondThin;endFill=1;endSize=24;html=1;exitX=0.5;exitY=0;exitDx=0;exitDy=0;entryX=1;entryY=0.5;entryDx=0;entryDy=0;" parent="1" source="iZDqGjUydslP9kxT50Uf-42" target="iZDqGjUydslP9kxT50Uf-35" edge="1">
          <mxGeometry width="160" relative="1" as="geometry">
            <mxPoint x="-3860" y="-165" as="sourcePoint" />
            <mxPoint x="-3720" y="-350" as="targetPoint" />
            <Array as="points">
              <mxPoint x="-3915" y="-159" />
            </Array>
          </mxGeometry>
        </mxCell>
        <mxCell id="iZDqGjUydslP9kxT50Uf-53" value="" style="endArrow=diamondThin;endFill=1;endSize=24;html=1;exitX=0.5;exitY=0;exitDx=0;exitDy=0;entryX=1;entryY=0.5;entryDx=0;entryDy=0;" parent="1" source="iZDqGjUydslP9kxT50Uf-5" target="iZDqGjUydslP9kxT50Uf-44" edge="1">
          <mxGeometry width="160" relative="1" as="geometry">
            <mxPoint x="-3915" y="10" as="sourcePoint" />
            <mxPoint x="-3790" y="-61" as="targetPoint" />
            <Array as="points">
              <mxPoint x="-3925" y="-20" />
              <mxPoint x="-3720" y="-20" />
              <mxPoint x="-3720" y="-45" />
            </Array>
          </mxGeometry>
        </mxCell>
        <mxCell id="iZDqGjUydslP9kxT50Uf-54" value="" style="endArrow=diamondThin;endFill=1;endSize=24;html=1;exitX=0.5;exitY=0;exitDx=0;exitDy=0;entryX=1;entryY=0.5;entryDx=0;entryDy=0;" parent="1" source="iZDqGjUydslP9kxT50Uf-5" target="iZDqGjUydslP9kxT50Uf-43" edge="1">
          <mxGeometry width="160" relative="1" as="geometry">
            <mxPoint x="-3915" y="10" as="sourcePoint" />
            <mxPoint x="-3790" y="-35" as="targetPoint" />
            <Array as="points">
              <mxPoint x="-3915" y="-10" />
              <mxPoint x="-3710" y="-10" />
              <mxPoint x="-3710" y="-71" />
            </Array>
          </mxGeometry>
        </mxCell>
        <mxCell id="iZDqGjUydslP9kxT50Uf-55" value="" style="endArrow=diamondThin;endFill=1;endSize=24;html=1;entryX=0;entryY=0.5;entryDx=0;entryDy=0;exitX=0.5;exitY=0;exitDx=0;exitDy=0;" parent="1" source="iZDqGjUydslP9kxT50Uf-45" target="iZDqGjUydslP9kxT50Uf-6" edge="1">
          <mxGeometry width="160" relative="1" as="geometry">
            <mxPoint x="-4400" y="100" as="sourcePoint" />
            <mxPoint x="-4240" y="100" as="targetPoint" />
            <Array as="points">
              <mxPoint x="-3980" y="110" />
              <mxPoint x="-4090" y="110" />
              <mxPoint x="-4090" y="38" />
            </Array>
          </mxGeometry>
        </mxCell>
        <mxCell id="iZDqGjUydslP9kxT50Uf-56" value="" style="endArrow=diamondThin;endFill=1;endSize=24;html=1;entryX=0;entryY=0.5;entryDx=0;entryDy=0;exitX=0.5;exitY=0;exitDx=0;exitDy=0;" parent="1" source="iZDqGjUydslP9kxT50Uf-45" target="iZDqGjUydslP9kxT50Uf-7" edge="1">
          <mxGeometry width="160" relative="1" as="geometry">
            <mxPoint x="-3965" y="112" as="sourcePoint" />
            <mxPoint x="-4035" y="20" as="targetPoint" />
            <Array as="points">
              <mxPoint x="-3980" y="100" />
              <mxPoint x="-4030" y="100" />
              <mxPoint x="-4075" y="100" />
              <mxPoint x="-4075" y="63" />
            </Array>
          </mxGeometry>
        </mxCell>
        <mxCell id="iZDqGjUydslP9kxT50Uf-57" value="" style="endArrow=diamondThin;endFill=1;endSize=24;html=1;entryX=1;entryY=0.5;entryDx=0;entryDy=0;exitX=0.5;exitY=0;exitDx=0;exitDy=0;" parent="1" source="iZDqGjUydslP9kxT50Uf-18" target="iZDqGjUydslP9kxT50Uf-10" edge="1">
          <mxGeometry width="160" relative="1" as="geometry">
            <mxPoint x="-4400" y="500" as="sourcePoint" />
            <mxPoint x="-4240" y="500" as="targetPoint" />
            <Array as="points">
              <mxPoint x="-3675" y="535" />
            </Array>
          </mxGeometry>
        </mxCell>
        <mxCell id="iZDqGjUydslP9kxT50Uf-58" value="" style="endArrow=diamondThin;endFill=1;endSize=24;html=1;entryX=0.5;entryY=1;entryDx=0;entryDy=0;exitX=0.5;exitY=0;exitDx=0;exitDy=0;" parent="1" source="iZDqGjUydslP9kxT50Uf-8" target="iZDqGjUydslP9kxT50Uf-36" edge="1">
          <mxGeometry width="160" relative="1" as="geometry">
            <mxPoint x="-4400" y="500" as="sourcePoint" />
            <mxPoint x="-4240" y="500" as="targetPoint" />
          </mxGeometry>
        </mxCell>
        <mxCell id="iZDqGjUydslP9kxT50Uf-59" value="" style="endArrow=diamondThin;endFill=1;endSize=24;html=1;entryX=0;entryY=0.5;entryDx=0;entryDy=0;exitX=0.5;exitY=0;exitDx=0;exitDy=0;" parent="1" source="iZDqGjUydslP9kxT50Uf-36" target="iZDqGjUydslP9kxT50Uf-46" edge="1">
          <mxGeometry width="160" relative="1" as="geometry">
            <mxPoint x="-4120" y="280" as="sourcePoint" />
            <mxPoint x="-4240" y="200" as="targetPoint" />
            <Array as="points">
              <mxPoint x="-4020" y="260" />
              <mxPoint x="-4120" y="260" />
              <mxPoint x="-4120" y="169" />
            </Array>
          </mxGeometry>
        </mxCell>
        <mxCell id="iZDqGjUydslP9kxT50Uf-60" value="" style="endArrow=diamondThin;endFill=1;endSize=24;html=1;entryX=0;entryY=0.5;entryDx=0;entryDy=0;exitX=0.5;exitY=0;exitDx=0;exitDy=0;" parent="1" source="iZDqGjUydslP9kxT50Uf-36" target="iZDqGjUydslP9kxT50Uf-47" edge="1">
          <mxGeometry width="160" relative="1" as="geometry">
            <mxPoint x="-4010" y="300" as="sourcePoint" />
            <mxPoint x="-4050" y="179" as="targetPoint" />
            <Array as="points">
              <mxPoint x="-4020" y="270" />
              <mxPoint x="-4110" y="270" />
              <mxPoint x="-4110" y="195" />
            </Array>
          </mxGeometry>
        </mxCell>
        <mxCell id="iZDqGjUydslP9kxT50Uf-64" value="LEComponent(DisplayObject, uniqueId)" style="swimlane;fontStyle=1;align=center;verticalAlign=top;childLayout=stackLayout;horizontal=1;startSize=26;horizontalStack=0;resizeParent=1;resizeParentMax=0;resizeLast=0;collapsible=1;marginBottom=0;" parent="1" vertex="1">
          <mxGeometry x="-2759" y="90" width="229" height="224" as="geometry" />
        </mxCell>
        <mxCell id="iZDqGjUydslP9kxT50Uf-65" value="+ displayObject: DisplayObject" style="text;strokeColor=none;fillColor=none;align=left;verticalAlign=top;spacingLeft=4;spacingRight=4;overflow=hidden;rotatable=0;points=[[0,0.5],[1,0.5]];portConstraint=eastwest;" parent="iZDqGjUydslP9kxT50Uf-64" vertex="1">
          <mxGeometry y="26" width="229" height="24" as="geometry" />
        </mxCell>
        <mxCell id="iZDqGjUydslP9kxT50Uf-113" value="+ uniqueId: String" style="text;strokeColor=none;fillColor=none;align=left;verticalAlign=top;spacingLeft=4;spacingRight=4;overflow=hidden;rotatable=0;points=[[0,0.5],[1,0.5]];portConstraint=eastwest;" parent="iZDqGjUydslP9kxT50Uf-64" vertex="1">
          <mxGeometry y="50" width="229" height="24" as="geometry" />
        </mxCell>
        <mxCell id="iZDqGjUydslP9kxT50Uf-108" value="..." style="text;strokeColor=none;fillColor=none;align=left;verticalAlign=top;spacingLeft=4;spacingRight=4;overflow=hidden;rotatable=0;points=[[0,0.5],[1,0.5]];portConstraint=eastwest;" parent="iZDqGjUydslP9kxT50Uf-64" vertex="1">
          <mxGeometry y="74" width="229" height="24" as="geometry" />
        </mxCell>
        <mxCell id="iZDqGjUydslP9kxT50Uf-66" value="" style="line;strokeWidth=1;fillColor=none;align=left;verticalAlign=middle;spacingTop=-1;spacingLeft=3;spacingRight=3;rotatable=0;labelPosition=right;points=[];portConstraint=eastwest;" parent="iZDqGjUydslP9kxT50Uf-64" vertex="1">
          <mxGeometry y="98" width="229" height="8" as="geometry" />
        </mxCell>
        <mxCell id="iZDqGjUydslP9kxT50Uf-67" value="..." style="text;strokeColor=none;fillColor=none;align=left;verticalAlign=top;spacingLeft=4;spacingRight=4;overflow=hidden;rotatable=0;points=[[0,0.5],[1,0.5]];portConstraint=eastwest;" parent="iZDqGjUydslP9kxT50Uf-64" vertex="1">
          <mxGeometry y="106" width="229" height="26" as="geometry" />
        </mxCell>
        <mxCell id="iZDqGjUydslP9kxT50Uf-111" value="" style="line;strokeWidth=1;fillColor=none;align=left;verticalAlign=middle;spacingTop=-1;spacingLeft=3;spacingRight=3;rotatable=0;labelPosition=right;points=[];portConstraint=eastwest;" parent="iZDqGjUydslP9kxT50Uf-64" vertex="1">
          <mxGeometry y="132" width="229" height="8" as="geometry" />
        </mxCell>
        <mxCell id="iZDqGjUydslP9kxT50Uf-112" value="При добавлении любому DisplayObject-у (DO) LEComponent, он автоматически будет записывать данный DO в обьект editorObjects под ключем uniqueId." style="text;strokeColor=none;fillColor=none;align=left;verticalAlign=top;spacingLeft=4;spacingRight=4;overflow=hidden;rotatable=0;points=[[0,0.5],[1,0.5]];portConstraint=eastwest;whiteSpace=wrap;" parent="iZDqGjUydslP9kxT50Uf-64" vertex="1">
          <mxGeometry y="140" width="229" height="84" as="geometry" />
        </mxCell>
        <mxCell id="iZDqGjUydslP9kxT50Uf-68" value="LESprite(uniqueId)" style="swimlane;fontStyle=1;align=center;verticalAlign=top;childLayout=stackLayout;horizontal=1;startSize=26;horizontalStack=0;resizeParent=1;resizeParentMax=0;resizeLast=0;collapsible=1;marginBottom=0;" parent="1" vertex="1">
          <mxGeometry x="-3039" y="90" width="180" height="190" as="geometry" />
        </mxCell>
        <mxCell id="iZDqGjUydslP9kxT50Uf-69" value="+ leComponent: LEComponent" style="text;strokeColor=none;fillColor=none;align=left;verticalAlign=top;spacingLeft=4;spacingRight=4;overflow=hidden;rotatable=0;points=[[0,0.5],[1,0.5]];portConstraint=eastwest;" parent="iZDqGjUydslP9kxT50Uf-68" vertex="1">
          <mxGeometry y="26" width="180" height="26" as="geometry" />
        </mxCell>
        <mxCell id="iZDqGjUydslP9kxT50Uf-109" value="..." style="text;strokeColor=none;fillColor=none;align=left;verticalAlign=top;spacingLeft=4;spacingRight=4;overflow=hidden;rotatable=0;points=[[0,0.5],[1,0.5]];portConstraint=eastwest;" parent="iZDqGjUydslP9kxT50Uf-68" vertex="1">
          <mxGeometry y="52" width="180" height="26" as="geometry" />
        </mxCell>
        <mxCell id="iZDqGjUydslP9kxT50Uf-70" value="" style="line;strokeWidth=1;fillColor=none;align=left;verticalAlign=middle;spacingTop=-1;spacingLeft=3;spacingRight=3;rotatable=0;labelPosition=right;points=[];portConstraint=eastwest;" parent="iZDqGjUydslP9kxT50Uf-68" vertex="1">
          <mxGeometry y="78" width="180" height="8" as="geometry" />
        </mxCell>
        <mxCell id="iZDqGjUydslP9kxT50Uf-71" value="..." style="text;strokeColor=none;fillColor=none;align=left;verticalAlign=top;spacingLeft=4;spacingRight=4;overflow=hidden;rotatable=0;points=[[0,0.5],[1,0.5]];portConstraint=eastwest;" parent="iZDqGjUydslP9kxT50Uf-68" vertex="1">
          <mxGeometry y="86" width="180" height="26" as="geometry" />
        </mxCell>
        <mxCell id="iZDqGjUydslP9kxT50Uf-114" value="" style="line;strokeWidth=1;fillColor=none;align=left;verticalAlign=middle;spacingTop=-1;spacingLeft=3;spacingRight=3;rotatable=0;labelPosition=right;points=[];portConstraint=eastwest;" parent="iZDqGjUydslP9kxT50Uf-68" vertex="1">
          <mxGeometry y="112" width="180" height="8" as="geometry" />
        </mxCell>
        <mxCell id="iZDqGjUydslP9kxT50Uf-116" value="Обертка над классом Sprite для упрощенного его добавления в конфиг редактора" style="text;strokeColor=none;fillColor=none;align=left;verticalAlign=top;spacingLeft=4;spacingRight=4;overflow=hidden;rotatable=0;points=[[0,0.5],[1,0.5]];portConstraint=eastwest;whiteSpace=wrap;" parent="iZDqGjUydslP9kxT50Uf-68" vertex="1">
          <mxGeometry y="120" width="180" height="70" as="geometry" />
        </mxCell>
        <mxCell id="iZDqGjUydslP9kxT50Uf-77" value="Sprite" style="swimlane;fontStyle=1;align=center;verticalAlign=top;childLayout=stackLayout;horizontal=1;startSize=26;horizontalStack=0;resizeParent=1;resizeParentMax=0;resizeLast=0;collapsible=1;marginBottom=0;spacingTop=0;" parent="1" vertex="1">
          <mxGeometry x="-3029" y="-70" width="160" height="80" as="geometry" />
        </mxCell>
        <mxCell id="iZDqGjUydslP9kxT50Uf-79" value="" style="line;strokeWidth=1;fillColor=none;align=left;verticalAlign=middle;spacingTop=-1;spacingLeft=3;spacingRight=3;rotatable=0;labelPosition=right;points=[];portConstraint=eastwest;" parent="iZDqGjUydslP9kxT50Uf-77" vertex="1">
          <mxGeometry y="26" width="160" height="8" as="geometry" />
        </mxCell>
        <mxCell id="iZDqGjUydslP9kxT50Uf-81" value="" style="line;strokeWidth=1;fillColor=none;align=left;verticalAlign=middle;spacingTop=-1;spacingLeft=3;spacingRight=3;rotatable=0;labelPosition=right;points=[];portConstraint=eastwest;" parent="iZDqGjUydslP9kxT50Uf-77" vertex="1">
          <mxGeometry y="34" width="160" height="8" as="geometry" />
        </mxCell>
        <mxCell id="iZDqGjUydslP9kxT50Uf-82" value="Класс Sprite из нашей библиотеки." style="text;strokeColor=none;fillColor=none;align=left;verticalAlign=top;spacingLeft=4;spacingRight=4;overflow=hidden;rotatable=0;points=[[0,0.5],[1,0.5]];portConstraint=eastwest;whiteSpace=wrap;" parent="iZDqGjUydslP9kxT50Uf-77" vertex="1">
          <mxGeometry y="42" width="160" height="38" as="geometry" />
        </mxCell>
        <mxCell id="iZDqGjUydslP9kxT50Uf-83" value="Extends" style="endArrow=block;endSize=16;endFill=0;html=1;entryX=0.513;entryY=1.068;entryDx=0;entryDy=0;entryPerimeter=0;exitX=0.5;exitY=0;exitDx=0;exitDy=0;" parent="1" source="iZDqGjUydslP9kxT50Uf-68" target="iZDqGjUydslP9kxT50Uf-82" edge="1">
          <mxGeometry width="160" relative="1" as="geometry">
            <mxPoint x="-2947" y="132" as="sourcePoint" />
            <mxPoint x="-3029" y="116" as="targetPoint" />
          </mxGeometry>
        </mxCell>
        <mxCell id="iZDqGjUydslP9kxT50Uf-89" value="" style="endArrow=diamondThin;endFill=0;endSize=24;html=1;entryX=1;entryY=0.5;entryDx=0;entryDy=0;exitX=0;exitY=0.5;exitDx=0;exitDy=0;" parent="1" source="iZDqGjUydslP9kxT50Uf-65" target="iZDqGjUydslP9kxT50Uf-69" edge="1">
          <mxGeometry width="160" relative="1" as="geometry">
            <mxPoint x="-2959" y="296" as="sourcePoint" />
            <mxPoint x="-2799" y="296" as="targetPoint" />
          </mxGeometry>
        </mxCell>
        <mxCell id="iZDqGjUydslP9kxT50Uf-96" value="Метод, который будет пробегаться по ключам обьекта конфига editorObjects и находить соотвествующие данные о ресайзе для соответсвующей сети, ориентации и соотношеню сторон из обьекта resizeData." style="shape=note;size=15;align=left;spacingLeft=10;html=1;whiteSpace=wrap;" parent="1" vertex="1">
          <mxGeometry x="-3530" y="300" width="150" height="140" as="geometry" />
        </mxCell>
        <mxCell id="iZDqGjUydslP9kxT50Uf-98" value="" style="edgeStyle=none;endArrow=none;exitX=0.8;exitY=0;dashed=1;html=1;align=center;entryX=0;entryY=0.5;entryDx=0;entryDy=0;" parent="1" source="iZDqGjUydslP9kxT50Uf-96" target="iZDqGjUydslP9kxT50Uf-4" edge="1">
          <mxGeometry x="1" relative="1" as="geometry">
            <mxPoint x="-3199" y="148" as="targetPoint" />
          </mxGeometry>
        </mxCell>
        <mxCell id="iZDqGjUydslP9kxT50Uf-99" value="" style="edgeStyle=none;endArrow=none;exitX=0.5;exitY=0;dashed=1;html=1;align=center;exitDx=0;exitDy=0;exitPerimeter=0;entryX=1;entryY=0.5;entryDx=0;entryDy=0;" parent="1" source="iZDqGjUydslP9kxT50Uf-96" target="iZDqGjUydslP9kxT50Uf-33" edge="1">
          <mxGeometry x="1" relative="1" as="geometry">
            <mxPoint x="-3460" y="-260" as="targetPoint" />
            <mxPoint x="-3620" y="60" as="sourcePoint" />
            <Array as="points">
              <mxPoint x="-3454" y="-211" />
            </Array>
          </mxGeometry>
        </mxCell>
        <mxCell id="iZDqGjUydslP9kxT50Uf-100" value="" style="edgeStyle=none;endArrow=none;exitX=0.5;exitY=0;dashed=1;html=1;align=center;exitDx=0;exitDy=0;exitPerimeter=0;entryX=1;entryY=0.5;entryDx=0;entryDy=0;" parent="1" source="iZDqGjUydslP9kxT50Uf-96" target="iZDqGjUydslP9kxT50Uf-35" edge="1">
          <mxGeometry x="1" relative="1" as="geometry">
            <mxPoint x="-3940" y="-201" as="targetPoint" />
            <mxPoint x="-3444" y="244" as="sourcePoint" />
            <Array as="points">
              <mxPoint x="-3454" y="-159" />
            </Array>
          </mxGeometry>
        </mxCell>
        <mxCell id="iZDqGjUydslP9kxT50Uf-104" value="uniqueId:String" style="html=1;align=center;" parent="1" vertex="1">
          <mxGeometry x="-2720" y="-160" width="110" height="50" as="geometry" />
        </mxCell>
        <mxCell id="iZDqGjUydslP9kxT50Uf-106" value="Уникальный идентификатор DisplayObject-а" style="shape=note;size=15;align=left;spacingLeft=10;html=1;whiteSpace=wrap;" parent="1" vertex="1">
          <mxGeometry x="-2891" y="-210" width="150" height="50" as="geometry" />
        </mxCell>
        <mxCell id="iZDqGjUydslP9kxT50Uf-107" value="" style="edgeStyle=none;endArrow=none;exitX=0;exitY=0.5;dashed=1;html=1;align=center;exitDx=0;exitDy=0;entryX=0;entryY=0;entryDx=150;entryDy=32.5;entryPerimeter=0;" parent="1" source="iZDqGjUydslP9kxT50Uf-104" target="iZDqGjUydslP9kxT50Uf-106" edge="1">
          <mxGeometry x="1" relative="1" as="geometry">
            <mxPoint x="-2640" y="-186" as="targetPoint" />
            <mxPoint x="-2700" y="-146" as="sourcePoint" />
          </mxGeometry>
        </mxCell>
        <mxCell id="iZDqGjUydslP9kxT50Uf-110" value="" style="text;strokeColor=none;fillColor=none;align=left;verticalAlign=middle;spacingTop=-1;spacingLeft=4;spacingRight=4;rotatable=0;labelPosition=right;points=[];portConstraint=eastwest;" parent="1" vertex="1">
          <mxGeometry x="-2820" y="220" width="20" height="14" as="geometry" />
        </mxCell>
        <mxCell id="iZDqGjUydslP9kxT50Uf-118" value="Интерпретатор и конфиг" style="text;align=center;fontStyle=1;verticalAlign=middle;spacingLeft=3;spacingRight=3;strokeColor=none;rotatable=0;points=[[0,0.5],[1,0.5]];portConstraint=eastwest;fontSize=30;" parent="1" vertex="1">
          <mxGeometry x="-3690" y="-410" width="390" height="60" as="geometry" />
        </mxCell>
        <mxCell id="iZDqGjUydslP9kxT50Uf-130" value="EventsManager" style="swimlane;fontStyle=1;align=center;verticalAlign=top;childLayout=stackLayout;horizontal=1;startSize=26;horizontalStack=0;resizeParent=1;resizeParentMax=0;resizeLast=0;collapsible=1;marginBottom=0;" parent="1" vertex="1">
          <mxGeometry x="-4040" y="-800" width="340" height="260" as="geometry" />
        </mxCell>
        <mxCell id="iZDqGjUydslP9kxT50Uf-131" value="+ observers: Obj" style="text;strokeColor=none;fillColor=none;align=left;verticalAlign=top;spacingLeft=4;spacingRight=4;overflow=hidden;rotatable=0;points=[[0,0.5],[1,0.5]];portConstraint=eastwest;" parent="iZDqGjUydslP9kxT50Uf-130" vertex="1">
          <mxGeometry y="26" width="340" height="26" as="geometry" />
        </mxCell>
        <mxCell id="iZDqGjUydslP9kxT50Uf-132" value="" style="line;strokeWidth=1;fillColor=none;align=left;verticalAlign=middle;spacingTop=-1;spacingLeft=3;spacingRight=3;rotatable=0;labelPosition=right;points=[];portConstraint=eastwest;" parent="iZDqGjUydslP9kxT50Uf-130" vertex="1">
          <mxGeometry y="52" width="340" height="8" as="geometry" />
        </mxCell>
        <mxCell id="iZDqGjUydslP9kxT50Uf-133" value="+ addObserver(Observer, name): type" style="text;strokeColor=none;fillColor=none;align=left;verticalAlign=top;spacingLeft=4;spacingRight=4;overflow=hidden;rotatable=0;points=[[0,0.5],[1,0.5]];portConstraint=eastwest;" parent="iZDqGjUydslP9kxT50Uf-130" vertex="1">
          <mxGeometry y="60" width="340" height="26" as="geometry" />
        </mxCell>
        <mxCell id="iZDqGjUydslP9kxT50Uf-134" value="+ subscribeForObserverEvent(Observer, EventName): type" style="text;strokeColor=none;fillColor=none;align=left;verticalAlign=top;spacingLeft=4;spacingRight=4;overflow=hidden;rotatable=0;points=[[0,0.5],[1,0.5]];portConstraint=eastwest;" parent="iZDqGjUydslP9kxT50Uf-130" vertex="1">
          <mxGeometry y="86" width="340" height="26" as="geometry" />
        </mxCell>
        <mxCell id="iZDqGjUydslP9kxT50Uf-142" value="" style="line;strokeWidth=1;fillColor=none;align=left;verticalAlign=middle;spacingTop=-1;spacingLeft=3;spacingRight=3;rotatable=0;labelPosition=right;points=[];portConstraint=eastwest;fontSize=30;" parent="iZDqGjUydslP9kxT50Uf-130" vertex="1">
          <mxGeometry y="112" width="340" height="8" as="geometry" />
        </mxCell>
        <mxCell id="iZDqGjUydslP9kxT50Uf-144" value="Основной контейнер для классов типа Observer. Будет исполнять функцию основного связующего между главными компонентами редактора. Например: пользователь пертащил картинку из компонента AssetsManager на компонент Scene, в таком случае экземпляр Observer класса AssetsManager сообщит &quot;Внимание ! переброшена картинка на сцену&quot;, а все другие компоненты редактора, которые заинтересованы в данном сообщении отреагируют соответственно&#xa;" style="text;strokeColor=none;fillColor=none;align=left;verticalAlign=top;spacingLeft=4;spacingRight=4;overflow=hidden;rotatable=0;points=[[0,0.5],[1,0.5]];portConstraint=eastwest;whiteSpace=wrap;" parent="iZDqGjUydslP9kxT50Uf-130" vertex="1">
          <mxGeometry y="120" width="340" height="140" as="geometry" />
        </mxCell>
        <mxCell id="iZDqGjUydslP9kxT50Uf-136" value="&lt;p style=&quot;margin: 0px ; margin-top: 4px ; text-align: center ; text-decoration: underline&quot;&gt;&lt;b&gt;Object&lt;/b&gt;&lt;/p&gt;&lt;hr&gt;&lt;p style=&quot;margin: 0px ; margin-left: 8px&quot;&gt;AssetsManagerObserver = Observer&lt;br&gt;SystemsObserver = Observer&lt;br&gt;ChildrenTreeObserver = Observer&lt;/p&gt;&lt;p style=&quot;margin: 0px ; margin-left: 8px&quot;&gt;...&lt;/p&gt;" style="verticalAlign=top;align=left;overflow=fill;fontSize=12;fontFamily=Helvetica;html=1;" parent="1" vertex="1">
          <mxGeometry x="-3660" y="-710" width="210" height="90" as="geometry" />
        </mxCell>
        <mxCell id="iZDqGjUydslP9kxT50Uf-137" value="Observer" style="swimlane;fontStyle=1;align=center;verticalAlign=top;childLayout=stackLayout;horizontal=1;startSize=26;horizontalStack=0;resizeParent=1;resizeParentMax=0;resizeLast=0;collapsible=1;marginBottom=0;" parent="1" vertex="1">
          <mxGeometry x="-3355" y="-800" width="210" height="284" as="geometry" />
        </mxCell>
        <mxCell id="iZDqGjUydslP9kxT50Uf-148" value="+listeners: [*]" style="text;strokeColor=none;fillColor=none;align=left;verticalAlign=top;spacingLeft=4;spacingRight=4;overflow=hidden;rotatable=0;points=[[0,0.5],[1,0.5]];portConstraint=eastwest;" parent="iZDqGjUydslP9kxT50Uf-137" vertex="1">
          <mxGeometry y="26" width="210" height="26" as="geometry" />
        </mxCell>
        <mxCell id="iZDqGjUydslP9kxT50Uf-138" value="..." style="text;strokeColor=none;fillColor=none;align=left;verticalAlign=top;spacingLeft=4;spacingRight=4;overflow=hidden;rotatable=0;points=[[0,0.5],[1,0.5]];portConstraint=eastwest;" parent="iZDqGjUydslP9kxT50Uf-137" vertex="1">
          <mxGeometry y="52" width="210" height="26" as="geometry" />
        </mxCell>
        <mxCell id="iZDqGjUydslP9kxT50Uf-139" value="" style="line;strokeWidth=1;fillColor=none;align=left;verticalAlign=middle;spacingTop=-1;spacingLeft=3;spacingRight=3;rotatable=0;labelPosition=right;points=[];portConstraint=eastwest;" parent="iZDqGjUydslP9kxT50Uf-137" vertex="1">
          <mxGeometry y="78" width="210" height="8" as="geometry" />
        </mxCell>
        <mxCell id="iZDqGjUydslP9kxT50Uf-140" value="subscribe(eventType, listener): void" style="text;strokeColor=none;fillColor=none;align=left;verticalAlign=top;spacingLeft=4;spacingRight=4;overflow=hidden;rotatable=0;points=[[0,0.5],[1,0.5]];portConstraint=eastwest;" parent="iZDqGjUydslP9kxT50Uf-137" vertex="1">
          <mxGeometry y="86" width="210" height="26" as="geometry" />
        </mxCell>
        <mxCell id="iZDqGjUydslP9kxT50Uf-150" value="unsubscribe(eventType, listener): void" style="text;strokeColor=none;fillColor=none;align=left;verticalAlign=top;spacingLeft=4;spacingRight=4;overflow=hidden;rotatable=0;points=[[0,0.5],[1,0.5]];portConstraint=eastwest;" parent="iZDqGjUydslP9kxT50Uf-137" vertex="1">
          <mxGeometry y="112" width="210" height="26" as="geometry" />
        </mxCell>
        <mxCell id="iZDqGjUydslP9kxT50Uf-151" value="notify(eventType, data): void" style="text;strokeColor=none;fillColor=none;align=left;verticalAlign=top;spacingLeft=4;spacingRight=4;overflow=hidden;rotatable=0;points=[[0,0.5],[1,0.5]];portConstraint=eastwest;" parent="iZDqGjUydslP9kxT50Uf-137" vertex="1">
          <mxGeometry y="138" width="210" height="26" as="geometry" />
        </mxCell>
        <mxCell id="iZDqGjUydslP9kxT50Uf-149" value="..." style="text;strokeColor=none;fillColor=none;align=left;verticalAlign=top;spacingLeft=4;spacingRight=4;overflow=hidden;rotatable=0;points=[[0,0.5],[1,0.5]];portConstraint=eastwest;" parent="iZDqGjUydslP9kxT50Uf-137" vertex="1">
          <mxGeometry y="164" width="210" height="26" as="geometry" />
        </mxCell>
        <mxCell id="iZDqGjUydslP9kxT50Uf-145" value="" style="line;strokeWidth=1;fillColor=none;align=left;verticalAlign=middle;spacingTop=-1;spacingLeft=3;spacingRight=3;rotatable=0;labelPosition=right;points=[];portConstraint=eastwest;fontSize=30;" parent="iZDqGjUydslP9kxT50Uf-137" vertex="1">
          <mxGeometry y="190" width="210" height="8" as="geometry" />
        </mxCell>
        <mxCell id="iZDqGjUydslP9kxT50Uf-146" value="Создаёт механизм подписки, позволяющий одним объектам следить и реагировать на события, происходящие в других объектах." style="text;strokeColor=none;fillColor=none;align=left;verticalAlign=top;spacingLeft=4;spacingRight=4;overflow=hidden;rotatable=0;points=[[0,0.5],[1,0.5]];portConstraint=eastwest;whiteSpace=wrap;" parent="iZDqGjUydslP9kxT50Uf-137" vertex="1">
          <mxGeometry y="198" width="210" height="86" as="geometry" />
        </mxCell>
        <mxCell id="iZDqGjUydslP9kxT50Uf-141" value="Менеджер ивентов&#xa;" style="text;align=center;fontStyle=1;verticalAlign=middle;spacingLeft=3;spacingRight=3;strokeColor=none;rotatable=0;points=[[0,0.5],[1,0.5]];portConstraint=eastwest;fontSize=30;" parent="1" vertex="1">
          <mxGeometry x="-3790" y="-860" width="390" height="80" as="geometry" />
        </mxCell>
        <mxCell id="iZDqGjUydslP9kxT50Uf-147" value="" style="endArrow=diamondThin;endFill=1;endSize=24;html=1;fontSize=30;align=center;entryX=1;entryY=0.5;entryDx=0;entryDy=0;exitX=0.5;exitY=0;exitDx=0;exitDy=0;" parent="1" source="iZDqGjUydslP9kxT50Uf-136" target="iZDqGjUydslP9kxT50Uf-131" edge="1">
          <mxGeometry width="160" relative="1" as="geometry">
            <mxPoint x="-3770" y="-620" as="sourcePoint" />
            <mxPoint x="-3610" y="-620" as="targetPoint" />
            <Array as="points">
              <mxPoint x="-3555" y="-761" />
            </Array>
          </mxGeometry>
        </mxCell>
        <mxCell id="iZDqGjUydslP9kxT50Uf-153" value="Менеджер ассетов" style="text;align=center;fontStyle=1;verticalAlign=middle;spacingLeft=3;spacingRight=3;strokeColor=none;rotatable=0;points=[[0,0.5],[1,0.5]];portConstraint=eastwest;fontSize=30;" parent="1" vertex="1">
          <mxGeometry x="-3905" y="1160" width="390" height="60" as="geometry" />
        </mxCell>
        <mxCell id="XEHRdCMnpSEZq263Jo83-1" value="" style="endArrow=none;html=1;entryX=0;entryY=0.5;entryDx=0;entryDy=0;exitX=0.5;exitY=0;exitDx=0;exitDy=0;" parent="1" source="pEa-rMu9kl-3zr13X7H1-1" target="v4rBiRq6WJc0ddFK_sni-4" edge="1">
          <mxGeometry width="50" height="50" relative="1" as="geometry">
            <mxPoint x="-1510" y="-270" as="sourcePoint" />
            <mxPoint x="-1460" y="-320" as="targetPoint" />
            <Array as="points">
              <mxPoint x="-1555" y="-349" />
            </Array>
          </mxGeometry>
        </mxCell>
        <mxCell id="XEHRdCMnpSEZq263Jo83-2" value="SceneEditor&#xa;" style="swimlane;fontStyle=1;align=center;verticalAlign=top;childLayout=stackLayout;horizontal=1;startSize=26;horizontalStack=0;resizeParent=1;resizeParentMax=0;resizeLast=0;collapsible=1;marginBottom=0;" parent="1" vertex="1">
          <mxGeometry x="-1315" y="88" width="195" height="206" as="geometry" />
        </mxCell>
        <mxCell id="XEHRdCMnpSEZq263Jo83-3" value="+ viewport: Viewport" style="text;strokeColor=none;fillColor=none;align=left;verticalAlign=top;spacingLeft=4;spacingRight=4;overflow=hidden;rotatable=0;points=[[0,0.5],[1,0.5]];portConstraint=eastwest;" parent="XEHRdCMnpSEZq263Jo83-2" vertex="1">
          <mxGeometry y="26" width="195" height="26" as="geometry" />
        </mxCell>
        <mxCell id="XEHRdCMnpSEZq263Jo83-24" value="+ viewportEditor: ViewportEditor" style="text;strokeColor=none;fillColor=none;align=left;verticalAlign=top;spacingLeft=4;spacingRight=4;overflow=hidden;rotatable=0;points=[[0,0.5],[1,0.5]];portConstraint=eastwest;" parent="XEHRdCMnpSEZq263Jo83-2" vertex="1">
          <mxGeometry y="52" width="195" height="26" as="geometry" />
        </mxCell>
        <mxCell id="XEHRdCMnpSEZq263Jo83-6" value="+ observer: Observer" style="text;strokeColor=none;fillColor=none;align=left;verticalAlign=top;spacingLeft=4;spacingRight=4;overflow=hidden;rotatable=0;points=[[0,0.5],[1,0.5]];portConstraint=eastwest;" parent="XEHRdCMnpSEZq263Jo83-2" vertex="1">
          <mxGeometry y="78" width="195" height="26" as="geometry" />
        </mxCell>
        <mxCell id="XEHRdCMnpSEZq263Jo83-4" value="" style="line;strokeWidth=1;fillColor=none;align=left;verticalAlign=middle;spacingTop=-1;spacingLeft=3;spacingRight=3;rotatable=0;labelPosition=right;points=[];portConstraint=eastwest;" parent="XEHRdCMnpSEZq263Jo83-2" vertex="1">
          <mxGeometry y="104" width="195" height="8" as="geometry" />
        </mxCell>
        <mxCell id="XEHRdCMnpSEZq263Jo83-5" value="..." style="text;strokeColor=none;fillColor=none;align=left;verticalAlign=top;spacingLeft=4;spacingRight=4;overflow=hidden;rotatable=0;points=[[0,0.5],[1,0.5]];portConstraint=eastwest;" parent="XEHRdCMnpSEZq263Jo83-2" vertex="1">
          <mxGeometry y="112" width="195" height="26" as="geometry" />
        </mxCell>
        <mxCell id="XEHRdCMnpSEZq263Jo83-7" value="" style="line;strokeWidth=1;fillColor=none;align=left;verticalAlign=middle;spacingTop=-1;spacingLeft=3;spacingRight=3;rotatable=0;labelPosition=right;points=[];portConstraint=eastwest;" parent="XEHRdCMnpSEZq263Jo83-2" vertex="1">
          <mxGeometry y="138" width="195" height="8" as="geometry" />
        </mxCell>
        <mxCell id="XEHRdCMnpSEZq263Jo83-8" value="Класс контейнер для вьюпорта и полей его редактирования" style="text;strokeColor=none;fillColor=none;align=left;verticalAlign=top;spacingLeft=4;spacingRight=4;overflow=hidden;rotatable=0;points=[[0,0.5],[1,0.5]];portConstraint=eastwest;whiteSpace=wrap;" parent="XEHRdCMnpSEZq263Jo83-2" vertex="1">
          <mxGeometry y="146" width="195" height="60" as="geometry" />
        </mxCell>
        <mxCell id="XEHRdCMnpSEZq263Jo83-23" style="edgeStyle=orthogonalEdgeStyle;rounded=0;orthogonalLoop=1;jettySize=auto;html=1;exitX=0.5;exitY=0;exitDx=0;exitDy=0;entryX=0;entryY=0.5;entryDx=0;entryDy=0;" parent="1" source="XEHRdCMnpSEZq263Jo83-9" target="XEHRdCMnpSEZq263Jo83-3" edge="1">
          <mxGeometry relative="1" as="geometry" />
        </mxCell>
        <mxCell id="XEHRdCMnpSEZq263Jo83-9" value="Viewport" style="swimlane;fontStyle=1;align=center;verticalAlign=top;childLayout=stackLayout;horizontal=1;startSize=26;horizontalStack=0;resizeParent=1;resizeParentMax=0;resizeLast=0;collapsible=1;marginBottom=0;" parent="1" vertex="1">
          <mxGeometry x="-1750" y="148" width="160" height="166" as="geometry" />
        </mxCell>
        <mxCell id="XEHRdCMnpSEZq263Jo83-10" value="+ scene: GameScene" style="text;strokeColor=none;fillColor=none;align=left;verticalAlign=top;spacingLeft=4;spacingRight=4;overflow=hidden;rotatable=0;points=[[0,0.5],[1,0.5]];portConstraint=eastwest;" parent="XEHRdCMnpSEZq263Jo83-9" vertex="1">
          <mxGeometry y="26" width="160" height="26" as="geometry" />
        </mxCell>
        <mxCell id="XEHRdCMnpSEZq263Jo83-21" value="..." style="text;strokeColor=none;fillColor=none;align=left;verticalAlign=top;spacingLeft=4;spacingRight=4;overflow=hidden;rotatable=0;points=[[0,0.5],[1,0.5]];portConstraint=eastwest;" parent="XEHRdCMnpSEZq263Jo83-9" vertex="1">
          <mxGeometry y="52" width="160" height="26" as="geometry" />
        </mxCell>
        <mxCell id="XEHRdCMnpSEZq263Jo83-11" value="" style="line;strokeWidth=1;fillColor=none;align=left;verticalAlign=middle;spacingTop=-1;spacingLeft=3;spacingRight=3;rotatable=0;labelPosition=right;points=[];portConstraint=eastwest;" parent="XEHRdCMnpSEZq263Jo83-9" vertex="1">
          <mxGeometry y="78" width="160" height="8" as="geometry" />
        </mxCell>
        <mxCell id="XEHRdCMnpSEZq263Jo83-12" value="..." style="text;strokeColor=none;fillColor=none;align=left;verticalAlign=top;spacingLeft=4;spacingRight=4;overflow=hidden;rotatable=0;points=[[0,0.5],[1,0.5]];portConstraint=eastwest;" parent="XEHRdCMnpSEZq263Jo83-9" vertex="1">
          <mxGeometry y="86" width="160" height="26" as="geometry" />
        </mxCell>
        <mxCell id="XEHRdCMnpSEZq263Jo83-13" value="" style="line;strokeWidth=1;fillColor=none;align=left;verticalAlign=middle;spacingTop=-1;spacingLeft=3;spacingRight=3;rotatable=0;labelPosition=right;points=[];portConstraint=eastwest;" parent="XEHRdCMnpSEZq263Jo83-9" vertex="1">
          <mxGeometry y="112" width="160" height="8" as="geometry" />
        </mxCell>
        <mxCell id="XEHRdCMnpSEZq263Jo83-14" value="Класс отвечающий за размерность сцены" style="text;strokeColor=none;fillColor=none;align=left;verticalAlign=top;spacingLeft=4;spacingRight=4;overflow=hidden;rotatable=0;points=[[0,0.5],[1,0.5]];portConstraint=eastwest;whiteSpace=wrap;" parent="XEHRdCMnpSEZq263Jo83-9" vertex="1">
          <mxGeometry y="120" width="160" height="46" as="geometry" />
        </mxCell>
        <mxCell id="XEHRdCMnpSEZq263Jo83-15" value="GameScene&#xa;" style="swimlane;fontStyle=1;align=center;verticalAlign=top;childLayout=stackLayout;horizontal=1;startSize=26;horizontalStack=0;resizeParent=1;resizeParentMax=0;resizeLast=0;collapsible=1;marginBottom=0;" parent="1" vertex="1">
          <mxGeometry x="-1990" y="148" width="160" height="140" as="geometry" />
        </mxCell>
        <mxCell id="XEHRdCMnpSEZq263Jo83-16" value="+ game: PIXI.Application" style="text;strokeColor=none;fillColor=none;align=left;verticalAlign=top;spacingLeft=4;spacingRight=4;overflow=hidden;rotatable=0;points=[[0,0.5],[1,0.5]];portConstraint=eastwest;" parent="XEHRdCMnpSEZq263Jo83-15" vertex="1">
          <mxGeometry y="26" width="160" height="26" as="geometry" />
        </mxCell>
        <mxCell id="XEHRdCMnpSEZq263Jo83-17" value="" style="line;strokeWidth=1;fillColor=none;align=left;verticalAlign=middle;spacingTop=-1;spacingLeft=3;spacingRight=3;rotatable=0;labelPosition=right;points=[];portConstraint=eastwest;" parent="XEHRdCMnpSEZq263Jo83-15" vertex="1">
          <mxGeometry y="52" width="160" height="8" as="geometry" />
        </mxCell>
        <mxCell id="XEHRdCMnpSEZq263Jo83-18" value="..." style="text;strokeColor=none;fillColor=none;align=left;verticalAlign=top;spacingLeft=4;spacingRight=4;overflow=hidden;rotatable=0;points=[[0,0.5],[1,0.5]];portConstraint=eastwest;" parent="XEHRdCMnpSEZq263Jo83-15" vertex="1">
          <mxGeometry y="60" width="160" height="26" as="geometry" />
        </mxCell>
        <mxCell id="XEHRdCMnpSEZq263Jo83-19" value="" style="line;strokeWidth=1;fillColor=none;align=left;verticalAlign=middle;spacingTop=-1;spacingLeft=3;spacingRight=3;rotatable=0;labelPosition=right;points=[];portConstraint=eastwest;" parent="XEHRdCMnpSEZq263Jo83-15" vertex="1">
          <mxGeometry y="86" width="160" height="8" as="geometry" />
        </mxCell>
        <mxCell id="XEHRdCMnpSEZq263Jo83-20" value="Класс содержащий в себе сцену плеебла" style="text;strokeColor=none;fillColor=none;align=left;verticalAlign=top;spacingLeft=4;spacingRight=4;overflow=hidden;rotatable=0;points=[[0,0.5],[1,0.5]];portConstraint=eastwest;whiteSpace=wrap;" parent="XEHRdCMnpSEZq263Jo83-15" vertex="1">
          <mxGeometry y="94" width="160" height="46" as="geometry" />
        </mxCell>
        <mxCell id="XEHRdCMnpSEZq263Jo83-22" style="edgeStyle=orthogonalEdgeStyle;rounded=0;orthogonalLoop=1;jettySize=auto;html=1;exitX=0;exitY=0.5;exitDx=0;exitDy=0;entryX=1;entryY=0.5;entryDx=0;entryDy=0;" parent="1" source="XEHRdCMnpSEZq263Jo83-10" target="XEHRdCMnpSEZq263Jo83-16" edge="1">
          <mxGeometry relative="1" as="geometry" />
        </mxCell>
        <mxCell id="XEHRdCMnpSEZq263Jo83-29" style="edgeStyle=orthogonalEdgeStyle;rounded=0;orthogonalLoop=1;jettySize=auto;html=1;exitX=0.5;exitY=0;exitDx=0;exitDy=0;entryX=0;entryY=0.5;entryDx=0;entryDy=0;" parent="1" source="XEHRdCMnpSEZq263Jo83-25" target="XEHRdCMnpSEZq263Jo83-24" edge="1">
          <mxGeometry relative="1" as="geometry" />
        </mxCell>
        <mxCell id="XEHRdCMnpSEZq263Jo83-25" value="ViewportEditor" style="swimlane;fontStyle=1;align=center;verticalAlign=top;childLayout=stackLayout;horizontal=1;startSize=26;horizontalStack=0;resizeParent=1;resizeParentMax=0;resizeLast=0;collapsible=1;marginBottom=0;" parent="1" vertex="1">
          <mxGeometry x="-1530" y="188" width="160" height="240" as="geometry" />
        </mxCell>
        <mxCell id="XEHRdCMnpSEZq263Jo83-26" value="+ dimensionsPanel: type" style="text;strokeColor=none;fillColor=none;align=left;verticalAlign=top;spacingLeft=4;spacingRight=4;overflow=hidden;rotatable=0;points=[[0,0.5],[1,0.5]];portConstraint=eastwest;" parent="XEHRdCMnpSEZq263Jo83-25" vertex="1">
          <mxGeometry y="26" width="160" height="26" as="geometry" />
        </mxCell>
        <mxCell id="XEHRdCMnpSEZq263Jo83-30" value="+ ratiosPanel: type" style="text;strokeColor=none;fillColor=none;align=left;verticalAlign=top;spacingLeft=4;spacingRight=4;overflow=hidden;rotatable=0;points=[[0,0.5],[1,0.5]];portConstraint=eastwest;" parent="XEHRdCMnpSEZq263Jo83-25" vertex="1">
          <mxGeometry y="52" width="160" height="26" as="geometry" />
        </mxCell>
        <mxCell id="XEHRdCMnpSEZq263Jo83-31" value="+ devicesPanel: type" style="text;strokeColor=none;fillColor=none;align=left;verticalAlign=top;spacingLeft=4;spacingRight=4;overflow=hidden;rotatable=0;points=[[0,0.5],[1,0.5]];portConstraint=eastwest;" parent="XEHRdCMnpSEZq263Jo83-25" vertex="1">
          <mxGeometry y="78" width="160" height="26" as="geometry" />
        </mxCell>
        <mxCell id="XEHRdCMnpSEZq263Jo83-32" value="+ devicesSwitcher: type" style="text;strokeColor=none;fillColor=none;align=left;verticalAlign=top;spacingLeft=4;spacingRight=4;overflow=hidden;rotatable=0;points=[[0,0.5],[1,0.5]];portConstraint=eastwest;" parent="XEHRdCMnpSEZq263Jo83-25" vertex="1">
          <mxGeometry y="104" width="160" height="26" as="geometry" />
        </mxCell>
        <mxCell id="XEHRdCMnpSEZq263Jo83-33" value="+ rotateScreenBtn: type" style="text;strokeColor=none;fillColor=none;align=left;verticalAlign=top;spacingLeft=4;spacingRight=4;overflow=hidden;rotatable=0;points=[[0,0.5],[1,0.5]];portConstraint=eastwest;" parent="XEHRdCMnpSEZq263Jo83-25" vertex="1">
          <mxGeometry y="130" width="160" height="26" as="geometry" />
        </mxCell>
        <mxCell id="XEHRdCMnpSEZq263Jo83-27" value="" style="line;strokeWidth=1;fillColor=none;align=left;verticalAlign=middle;spacingTop=-1;spacingLeft=3;spacingRight=3;rotatable=0;labelPosition=right;points=[];portConstraint=eastwest;" parent="XEHRdCMnpSEZq263Jo83-25" vertex="1">
          <mxGeometry y="156" width="160" height="8" as="geometry" />
        </mxCell>
        <mxCell id="XEHRdCMnpSEZq263Jo83-28" value="..." style="text;strokeColor=none;fillColor=none;align=left;verticalAlign=top;spacingLeft=4;spacingRight=4;overflow=hidden;rotatable=0;points=[[0,0.5],[1,0.5]];portConstraint=eastwest;" parent="XEHRdCMnpSEZq263Jo83-25" vertex="1">
          <mxGeometry y="164" width="160" height="26" as="geometry" />
        </mxCell>
        <mxCell id="XEHRdCMnpSEZq263Jo83-35" value="Класс отвечающий за ввод параметров размерности сцены&#xa;" style="text;strokeColor=none;fillColor=none;align=left;verticalAlign=top;spacingLeft=4;spacingRight=4;overflow=hidden;rotatable=0;points=[[0,0.5],[1,0.5]];portConstraint=eastwest;whiteSpace=wrap;" parent="XEHRdCMnpSEZq263Jo83-25" vertex="1">
          <mxGeometry y="190" width="160" height="50" as="geometry" />
        </mxCell>
        <mxCell id="1gUtN99G2Z4nJBqUd3AU-1" value="Children Editor" style="text;align=center;fontStyle=1;verticalAlign=middle;spacingLeft=3;spacingRight=3;strokeColor=none;rotatable=0;points=[[0,0.5],[1,0.5]];portConstraint=eastwest;fontSize=30;" vertex="1" parent="1">
          <mxGeometry x="-1845" y="-800" width="390" height="60" as="geometry" />
        </mxCell>
        <mxCell id="1gUtN99G2Z4nJBqUd3AU-2" value="Scene" style="text;align=center;fontStyle=1;verticalAlign=middle;spacingLeft=3;spacingRight=3;strokeColor=none;rotatable=0;points=[[0,0.5],[1,0.5]];portConstraint=eastwest;fontSize=30;" vertex="1" parent="1">
          <mxGeometry x="-1729" y="-40" width="390" height="60" as="geometry" />
        </mxCell>
        <mxCell id="1gUtN99G2Z4nJBqUd3AU-3" value="Inspector" style="swimlane;fontStyle=1;align=center;verticalAlign=top;childLayout=stackLayout;horizontal=1;startSize=26;horizontalStack=0;resizeParent=1;resizeParentMax=0;resizeLast=0;collapsible=1;marginBottom=0;" vertex="1" parent="1">
          <mxGeometry x="-2227" y="850" width="160" height="202" as="geometry" />
        </mxCell>
        <mxCell id="1gUtN99G2Z4nJBqUd3AU-4" value="+ observer: Observer" style="text;strokeColor=none;fillColor=none;align=left;verticalAlign=top;spacingLeft=4;spacingRight=4;overflow=hidden;rotatable=0;points=[[0,0.5],[1,0.5]];portConstraint=eastwest;" vertex="1" parent="1gUtN99G2Z4nJBqUd3AU-3">
          <mxGeometry y="26" width="160" height="26" as="geometry" />
        </mxCell>
        <mxCell id="1gUtN99G2Z4nJBqUd3AU-8" value="+ view: domElement" style="text;strokeColor=none;fillColor=none;align=left;verticalAlign=top;spacingLeft=4;spacingRight=4;overflow=hidden;rotatable=0;points=[[0,0.5],[1,0.5]];portConstraint=eastwest;" vertex="1" parent="1gUtN99G2Z4nJBqUd3AU-3">
          <mxGeometry y="52" width="160" height="26" as="geometry" />
        </mxCell>
        <mxCell id="1gUtN99G2Z4nJBqUd3AU-17" value="..." style="text;strokeColor=none;fillColor=none;align=left;verticalAlign=top;spacingLeft=4;spacingRight=4;overflow=hidden;rotatable=0;points=[[0,0.5],[1,0.5]];portConstraint=eastwest;" vertex="1" parent="1gUtN99G2Z4nJBqUd3AU-3">
          <mxGeometry y="78" width="160" height="26" as="geometry" />
        </mxCell>
        <mxCell id="1gUtN99G2Z4nJBqUd3AU-5" value="" style="line;strokeWidth=1;fillColor=none;align=left;verticalAlign=middle;spacingTop=-1;spacingLeft=3;spacingRight=3;rotatable=0;labelPosition=right;points=[];portConstraint=eastwest;" vertex="1" parent="1gUtN99G2Z4nJBqUd3AU-3">
          <mxGeometry y="104" width="160" height="8" as="geometry" />
        </mxCell>
        <mxCell id="1gUtN99G2Z4nJBqUd3AU-6" value="..." style="text;strokeColor=none;fillColor=none;align=left;verticalAlign=top;spacingLeft=4;spacingRight=4;overflow=hidden;rotatable=0;points=[[0,0.5],[1,0.5]];portConstraint=eastwest;" vertex="1" parent="1gUtN99G2Z4nJBqUd3AU-3">
          <mxGeometry y="112" width="160" height="26" as="geometry" />
        </mxCell>
        <mxCell id="1gUtN99G2Z4nJBqUd3AU-9" value="" style="line;strokeWidth=1;fillColor=none;align=left;verticalAlign=middle;spacingTop=-1;spacingLeft=3;spacingRight=3;rotatable=0;labelPosition=right;points=[];portConstraint=eastwest;" vertex="1" parent="1gUtN99G2Z4nJBqUd3AU-3">
          <mxGeometry y="138" width="160" height="8" as="geometry" />
        </mxCell>
        <mxCell id="1gUtN99G2Z4nJBqUd3AU-10" value="Класс вьюха редактора предназначеный для редактирования элемента" style="text;strokeColor=none;fillColor=none;align=left;verticalAlign=top;spacingLeft=4;spacingRight=4;overflow=hidden;rotatable=0;points=[[0,0.5],[1,0.5]];portConstraint=eastwest;whiteSpace=wrap;" vertex="1" parent="1gUtN99G2Z4nJBqUd3AU-3">
          <mxGeometry y="146" width="160" height="56" as="geometry" />
        </mxCell>
        <mxCell id="1gUtN99G2Z4nJBqUd3AU-11" value="ECSWrapper" style="swimlane;fontStyle=1;align=center;verticalAlign=top;childLayout=stackLayout;horizontal=1;startSize=26;horizontalStack=0;resizeParent=1;resizeParentMax=0;resizeLast=0;collapsible=1;marginBottom=0;" vertex="1" parent="1">
          <mxGeometry x="-2502" y="1380" width="160" height="184" as="geometry" />
        </mxCell>
        <mxCell id="1gUtN99G2Z4nJBqUd3AU-12" value="+ ecs: ECS" style="text;strokeColor=none;fillColor=none;align=left;verticalAlign=top;spacingLeft=4;spacingRight=4;overflow=hidden;rotatable=0;points=[[0,0.5],[1,0.5]];portConstraint=eastwest;" vertex="1" parent="1gUtN99G2Z4nJBqUd3AU-11">
          <mxGeometry y="26" width="160" height="26" as="geometry" />
        </mxCell>
        <mxCell id="1gUtN99G2Z4nJBqUd3AU-29" value="+ observer: Observer" style="text;strokeColor=none;fillColor=none;align=left;verticalAlign=top;spacingLeft=4;spacingRight=4;overflow=hidden;rotatable=0;points=[[0,0.5],[1,0.5]];portConstraint=eastwest;" vertex="1" parent="1gUtN99G2Z4nJBqUd3AU-11">
          <mxGeometry y="52" width="160" height="26" as="geometry" />
        </mxCell>
        <mxCell id="1gUtN99G2Z4nJBqUd3AU-18" value="..." style="text;strokeColor=none;fillColor=none;align=left;verticalAlign=top;spacingLeft=4;spacingRight=4;overflow=hidden;rotatable=0;points=[[0,0.5],[1,0.5]];portConstraint=eastwest;" vertex="1" parent="1gUtN99G2Z4nJBqUd3AU-11">
          <mxGeometry y="78" width="160" height="26" as="geometry" />
        </mxCell>
        <mxCell id="1gUtN99G2Z4nJBqUd3AU-13" value="" style="line;strokeWidth=1;fillColor=none;align=left;verticalAlign=middle;spacingTop=-1;spacingLeft=3;spacingRight=3;rotatable=0;labelPosition=right;points=[];portConstraint=eastwest;" vertex="1" parent="1gUtN99G2Z4nJBqUd3AU-11">
          <mxGeometry y="104" width="160" height="8" as="geometry" />
        </mxCell>
        <mxCell id="1gUtN99G2Z4nJBqUd3AU-14" value="..." style="text;strokeColor=none;fillColor=none;align=left;verticalAlign=top;spacingLeft=4;spacingRight=4;overflow=hidden;rotatable=0;points=[[0,0.5],[1,0.5]];portConstraint=eastwest;" vertex="1" parent="1gUtN99G2Z4nJBqUd3AU-11">
          <mxGeometry y="112" width="160" height="26" as="geometry" />
        </mxCell>
        <mxCell id="1gUtN99G2Z4nJBqUd3AU-19" value="" style="line;strokeWidth=1;fillColor=none;align=left;verticalAlign=middle;spacingTop=-1;spacingLeft=3;spacingRight=3;rotatable=0;labelPosition=right;points=[];portConstraint=eastwest;" vertex="1" parent="1gUtN99G2Z4nJBqUd3AU-11">
          <mxGeometry y="138" width="160" height="8" as="geometry" />
        </mxCell>
        <mxCell id="1gUtN99G2Z4nJBqUd3AU-20" value="Обертка ecsy" style="text;strokeColor=none;fillColor=none;align=left;verticalAlign=top;spacingLeft=4;spacingRight=4;overflow=hidden;rotatable=0;points=[[0,0.5],[1,0.5]];portConstraint=eastwest;whiteSpace=wrap;" vertex="1" parent="1gUtN99G2Z4nJBqUd3AU-11">
          <mxGeometry y="146" width="160" height="38" as="geometry" />
        </mxCell>
        <mxCell id="1gUtN99G2Z4nJBqUd3AU-23" value="Вьюха инспектора" style="shape=note;size=15;align=left;spacingLeft=10;html=1;whiteSpace=wrap;" vertex="1" parent="1">
          <mxGeometry x="-2440" y="924" width="150" height="40" as="geometry" />
        </mxCell>
        <mxCell id="1gUtN99G2Z4nJBqUd3AU-25" value="" style="edgeStyle=none;endArrow=none;exitX=0.8;exitY=0;dashed=1;html=1;entryX=0;entryY=0.5;entryDx=0;entryDy=0;" edge="1" source="1gUtN99G2Z4nJBqUd3AU-23" parent="1" target="1gUtN99G2Z4nJBqUd3AU-8">
          <mxGeometry x="1" relative="1" as="geometry">
            <mxPoint x="-2290" y="870" as="targetPoint" />
          </mxGeometry>
        </mxCell>
        <mxCell id="1gUtN99G2Z4nJBqUd3AU-27" value="Inspector" style="text;align=center;fontStyle=1;verticalAlign=middle;spacingLeft=3;spacingRight=3;strokeColor=none;rotatable=0;points=[[0,0.5],[1,0.5]];portConstraint=eastwest;fontSize=30;" vertex="1" parent="1">
          <mxGeometry x="-2440" y="750" width="390" height="60" as="geometry" />
        </mxCell>
        <mxCell id="1gUtN99G2Z4nJBqUd3AU-28" value="ECS" style="text;align=center;fontStyle=1;verticalAlign=middle;spacingLeft=3;spacingRight=3;strokeColor=none;rotatable=0;points=[[0,0.5],[1,0.5]];portConstraint=eastwest;fontSize=30;" vertex="1" parent="1">
          <mxGeometry x="-2500" y="1250" width="390" height="60" as="geometry" />
        </mxCell>
        <mxCell id="1gUtN99G2Z4nJBqUd3AU-41" style="edgeStyle=orthogonalEdgeStyle;rounded=0;orthogonalLoop=1;jettySize=auto;html=1;exitX=0.5;exitY=0;exitDx=0;exitDy=0;entryX=1;entryY=0.5;entryDx=0;entryDy=0;" edge="1" parent="1" source="1gUtN99G2Z4nJBqUd3AU-30" target="1gUtN99G2Z4nJBqUd3AU-12">
          <mxGeometry relative="1" as="geometry" />
        </mxCell>
        <mxCell id="1gUtN99G2Z4nJBqUd3AU-30" value="ECS" style="swimlane;fontStyle=1;align=center;verticalAlign=top;childLayout=stackLayout;horizontal=1;startSize=26;horizontalStack=0;resizeParent=1;resizeParentMax=0;resizeLast=0;collapsible=1;marginBottom=0;" vertex="1" parent="1">
          <mxGeometry x="-2270" y="1380" width="160" height="236" as="geometry" />
        </mxCell>
        <mxCell id="1gUtN99G2Z4nJBqUd3AU-31" value="+ entities: {}" style="text;strokeColor=none;fillColor=none;align=left;verticalAlign=top;spacingLeft=4;spacingRight=4;overflow=hidden;rotatable=0;points=[[0,0.5],[1,0.5]];portConstraint=eastwest;" vertex="1" parent="1gUtN99G2Z4nJBqUd3AU-30">
          <mxGeometry y="26" width="160" height="26" as="geometry" />
        </mxCell>
        <mxCell id="1gUtN99G2Z4nJBqUd3AU-32" value="+ components: {}" style="text;strokeColor=none;fillColor=none;align=left;verticalAlign=top;spacingLeft=4;spacingRight=4;overflow=hidden;rotatable=0;points=[[0,0.5],[1,0.5]];portConstraint=eastwest;" vertex="1" parent="1gUtN99G2Z4nJBqUd3AU-30">
          <mxGeometry y="52" width="160" height="26" as="geometry" />
        </mxCell>
        <mxCell id="1gUtN99G2Z4nJBqUd3AU-33" value="+ systems: {}" style="text;strokeColor=none;fillColor=none;align=left;verticalAlign=top;spacingLeft=4;spacingRight=4;overflow=hidden;rotatable=0;points=[[0,0.5],[1,0.5]];portConstraint=eastwest;" vertex="1" parent="1gUtN99G2Z4nJBqUd3AU-30">
          <mxGeometry y="78" width="160" height="26" as="geometry" />
        </mxCell>
        <mxCell id="1gUtN99G2Z4nJBqUd3AU-34" value="+ observer: Observer" style="text;strokeColor=none;fillColor=none;align=left;verticalAlign=top;spacingLeft=4;spacingRight=4;overflow=hidden;rotatable=0;points=[[0,0.5],[1,0.5]];portConstraint=eastwest;" vertex="1" parent="1gUtN99G2Z4nJBqUd3AU-30">
          <mxGeometry y="104" width="160" height="26" as="geometry" />
        </mxCell>
        <mxCell id="1gUtN99G2Z4nJBqUd3AU-35" value="..." style="text;strokeColor=none;fillColor=none;align=left;verticalAlign=top;spacingLeft=4;spacingRight=4;overflow=hidden;rotatable=0;points=[[0,0.5],[1,0.5]];portConstraint=eastwest;" vertex="1" parent="1gUtN99G2Z4nJBqUd3AU-30">
          <mxGeometry y="130" width="160" height="26" as="geometry" />
        </mxCell>
        <mxCell id="1gUtN99G2Z4nJBqUd3AU-36" value="" style="line;strokeWidth=1;fillColor=none;align=left;verticalAlign=middle;spacingTop=-1;spacingLeft=3;spacingRight=3;rotatable=0;labelPosition=right;points=[];portConstraint=eastwest;" vertex="1" parent="1gUtN99G2Z4nJBqUd3AU-30">
          <mxGeometry y="156" width="160" height="8" as="geometry" />
        </mxCell>
        <mxCell id="1gUtN99G2Z4nJBqUd3AU-37" value="..." style="text;strokeColor=none;fillColor=none;align=left;verticalAlign=top;spacingLeft=4;spacingRight=4;overflow=hidden;rotatable=0;points=[[0,0.5],[1,0.5]];portConstraint=eastwest;" vertex="1" parent="1gUtN99G2Z4nJBqUd3AU-30">
          <mxGeometry y="164" width="160" height="26" as="geometry" />
        </mxCell>
        <mxCell id="1gUtN99G2Z4nJBqUd3AU-38" value="" style="line;strokeWidth=1;fillColor=none;align=left;verticalAlign=middle;spacingTop=-1;spacingLeft=3;spacingRight=3;rotatable=0;labelPosition=right;points=[];portConstraint=eastwest;" vertex="1" parent="1gUtN99G2Z4nJBqUd3AU-30">
          <mxGeometry y="190" width="160" height="8" as="geometry" />
        </mxCell>
        <mxCell id="1gUtN99G2Z4nJBqUd3AU-39" value="Библиотека ecsy от разработчиков мозиллы" style="text;strokeColor=none;fillColor=none;align=left;verticalAlign=top;spacingLeft=4;spacingRight=4;overflow=hidden;rotatable=0;points=[[0,0.5],[1,0.5]];portConstraint=eastwest;whiteSpace=wrap;" vertex="1" parent="1gUtN99G2Z4nJBqUd3AU-30">
          <mxGeometry y="198" width="160" height="38" as="geometry" />
        </mxCell>
      </root>
    </mxGraphModel>
  </diagram>
</mxfile>
